<?xml version="1.0" encoding="UTF-8" standalone="no"?>
<svg width="288px" height="218px" viewBox="0 0 288 218" version="1.1" xmlns="http://www.w3.org/2000/svg" xmlns:xlink="http://www.w3.org/1999/xlink">
    <!-- Generator: Sketch 40 (33762) - http://www.bohemiancoding.com/sketch -->
    <title>Group 2</title>
    <desc>Created with Sketch.</desc>
    <defs></defs>
    <g id="Page-1" stroke="none" stroke-width="1" fill="none" fill-rule="evenodd">
        <g id="Group-2" transform="translate(0.000000, -2.000000)">
            <path d="M144,219.4128 C64.7754,219.4128 0.5514,170.8746 0.5514,110.999994 C0.5514,51.1254 64.7754,2.5872 144,2.5872 C223.2246,2.5872 287.4486,51.1254 287.4486,110.999994 C287.4486,170.8746 223.2246,219.4128 144,219.4128 L144,219.4128 Z" id="Shape" fill="#FDF2CC"></path>
            <path d="M143.817415,213.5886 C68.8491,213.4551 8.157,167.4165 8.2578,110.758403 C8.3586,54.1002 69.2142,8.2782 144.182585,8.4114 C219.1509,8.5449 279.843,54.5835 279.7422,111.241586 C279.6414,167.8998 218.7858,213.7218 143.817415,213.5886 L143.817415,213.5886 Z" id="Shape" fill-opacity="0.763858" fill="#A4D0B5"></path>
            <path d="M237.9954,130.56201 L226.1367,108.46743 C224.8884,106.15812 222.5166,104.78499 219.9576,104.78499 L202.6065,104.78499 C199.9227,104.78499 197.4885,106.28295 196.3029,108.654672 L185.3178,130.56201 L192.1209,130.56201 L200.0475,115.76988 C200.6094,114.70884 202.2321,115.08333 202.2321,116.3316 L202.2321,127.31646 L220.2699,127.31646 L220.2699,116.51883 C220.2699,115.27056 221.8926,114.89607 222.4542,115.95711 L230.3184,130.62441 L237.9954,130.62441 L237.9954,130.56201 Z" id="Shape" fill="#774F38"></path>
            <path d="M238.4946,132.24717 L232.2534,132.24717 C232.0659,133.43304 232.2534,134.80617 232.8774,136.24167 C234.0633,139.11273 236.4351,140.86032 238.1826,140.11134 C239.9301,139.36239 240.4296,136.49133 239.1813,133.6203 C238.9941,133.12098 238.7442,132.68409 238.4946,132.24717 L238.4946,132.24717 Z" id="Shape" fill="#774F38"></path>
            <path d="M184.881,132.24717 L191.1225,132.24717 C191.3097,133.43304 191.1225,134.80617 190.4982,136.24167 C189.3123,139.11273 186.9408,140.86032 185.193,140.11134 C183.4455,139.36239 182.9463,136.49133 184.1943,133.6203 C184.3818,133.12098 184.6314,132.68409 184.881,132.24717 L184.881,132.24717 Z" id="Shape" fill="#774F38"></path>
            <path d="M237.9954,130.56201 L226.1367,108.46743 C224.8884,106.15812 222.5166,104.78499 219.9576,104.78499 L202.6065,104.78499 C199.9227,104.78499 197.4885,106.28295 196.3029,108.654672 L185.3178,130.56201 L192.1209,130.56201 L200.0475,115.76988 C200.6094,114.70884 202.2321,115.08333 202.2321,116.3316 L202.2321,127.31646 L220.2699,127.31646 L220.2699,116.51883 C220.2699,115.27056 221.8926,114.89607 222.4542,115.95711 L230.3184,130.62441 L237.9954,130.62441 L237.9954,130.56201 Z" id="Shape" fill-opacity="0.517738" fill="#E08E79"></path>
            <path d="M238.4946,132.24717 L232.2534,132.24717 C232.0659,133.43304 232.2534,134.80617 232.8774,136.24167 C234.0633,139.11273 236.4351,140.86032 238.1826,140.11134 C239.9301,139.36239 240.4296,136.49133 239.1813,133.6203 C238.9941,133.12098 238.7442,132.68409 238.4946,132.24717 L238.4946,132.24717 Z" id="Shape" fill-opacity="0.517738" fill="#E08E79"></path>
            <path d="M184.881,132.24717 L191.1225,132.24717 C191.3097,133.43304 191.1225,134.80617 190.4982,136.24167 C189.3123,139.11273 186.9408,140.86032 185.193,140.11134 C183.4455,139.36239 182.9463,136.49133 184.1943,133.6203 C184.3818,133.12098 184.6314,132.68409 184.881,132.24717 L184.881,132.24717 Z" id="Shape" fill-opacity="0.517738" fill="#E08E79"></path>
            <polygon id="Shape" fill="#AD705A" points="202.2633 135.49662 202.2402 127.07358 220.3143 127.02369 220.3377 135.44673 202.2633 135.49662"></polygon>
            <polygon id="Shape" fill="#016563" points="229.0353 159.6981 220.0821 130.62456 202.4367 130.62456 193.4835 159.6981 200.3505 159.6981 202.3497 183.9261 205.566 183.9261 207.3912 159.6981 215.2143 159.6981 217.2135 183.9261 220.5168 183.9261 222.2553 159.6981"></polygon>
            <path d="M211.638,77.0733 L211.638,77.0733 C219.4416,77.0733 225.7722,83.39604 225.7722,91.18992 L225.7722,99.95415 C225.7722,102.92772 223.359,105.30657 220.413,105.30657 L202.8945,105.30657 C199.9173,105.30657 197.5356,102.89643 197.5356,99.95415 L197.5356,91.18992 C197.5041,83.39604 203.8035,77.0733 211.638,77.0733 L211.638,77.0733 Z" id="Shape" fill="#011534"></path>
            <path d="M219.9474,94.45812 C219.9474,91.37715 217.4589,88.88865 214.3779,88.88865 C211.2969,88.88865 208.8084,91.37715 208.8084,94.45812 L208.8084,96.66516 C208.8084,99.74616 211.2969,102.23463 214.3779,102.23463 C217.4589,102.23463 219.9474,99.74616 219.9474,96.66516 L219.9474,94.45812 L219.9474,94.45812 Z" id="Shape" fill="#FFA539"></path>
            <path d="M211.6848,88.7316 L211.6848,88.7316 C209.8341,88.7316 208.3533,90.24921 208.3533,92.06292 L208.3533,102.05685 C208.3533,103.90758 209.871,105.38814 211.6848,105.38814 L211.6848,105.38814 C213.5355,105.38814 215.016,103.87056 215.016,102.05685 L215.016,92.06292 C215.016,90.21219 213.5355,88.7316 211.6848,88.7316 L211.6848,88.7316 Z" id="Shape" fill="#E19407"></path>
            <path d="M203.2455,86.95977 L220.0869,86.95977 L220.0869,94.67487 C220.0869,98.95725 216.3114,102.38997 211.6848,102.38997 L211.6848,102.38997 C207.021,102.38997 203.2824,98.92329 203.2824,94.67487 L203.2824,86.95977 L203.2455,86.95977 Z" id="Shape" fill="#FAC11D"></path>
            <path d="M215.2011,90.7674 C215.9415,90.7674 216.5337,91.47069 216.5337,92.35902 C216.5337,93.24738 215.9415,93.95067 215.2011,93.95067 C214.4607,93.95067 213.8685,93.24738 213.8685,92.35902 C213.8685,91.47069 214.4607,90.7674 215.2011,90.7674 L215.2011,90.7674 Z" id="Shape" fill="#252728"></path>
            <path d="M208.5756,90.7674 C209.3157,90.7674 209.9079,91.47069 209.9079,92.35902 C209.9079,93.24738 209.3157,93.95067 208.5756,93.95067 C207.8352,93.95067 207.243,93.24738 207.243,92.35902 C207.2799,91.47069 207.8721,90.7674 208.5756,90.7674 L208.5756,90.7674 Z" id="Shape" fill="#252728"></path>
            <path d="M208.5384,97.83717 C208.5384,98.83656 209.982,99.65088 211.7958,99.65088 C213.6096,99.65088 215.0529,98.83656 215.0529,97.83717 L208.5384,97.83717 L208.5384,97.83717 Z" id="Shape" fill="#252728"></path>
            <path d="M209.871,95.46825 C209.871,96.06048 210.6852,96.54168 211.7217,96.54168 C212.721,96.54168 213.5724,96.06048 213.5724,95.46825 L209.871,95.46825 L209.871,95.46825 Z" id="Shape" fill="#E19407"></path>
            <path d="M220.2846,90.44106 L219.4416,90.44157 L219.4407,89.03904 L216.0303,89.04111 C214.3812,89.0421 213.0141,90.1299 212.6964,91.58526 C212.4339,91.42761 212.1339,91.34013 211.8342,91.34031 C211.5156,91.34052 211.2159,91.42836 210.9537,91.58631 C210.6342,90.13137 209.2656,89.02767 207.6165,89.02869 L204.2061,89.03076 L204.207,90.43329 L203.3826,90.4338 L203.3829,90.95976 L204.2073,90.95925 L204.2082,92.22156 C204.2094,93.97473 205.728,95.41143 207.6204,95.41026 C209.5131,95.40912 211.0302,93.98811 211.029,92.21742 C211.029,92.21742 211.029,92.21742 211.029,92.19987 L211.0476,92.21739 C211.2537,91.98936 211.5348,91.86645 211.8534,91.86627 C212.1717,91.86606 212.4531,91.98864 212.6592,92.21643 L212.6592,92.21643 C212.6604,93.9696 214.179,95.4063 216.0717,95.40513 C217.9455,95.40399 219.4812,93.98298 219.48,92.21226 L219.4794,90.94998 L220.3224,90.94947 L220.3221,90.44103 L220.2846,90.44106 Z M207.6201,94.90185 C206.0463,94.90281 204.7899,93.71139 204.789,92.25627 L204.7884,90.99396 L204.7881,90.468 L204.7875,89.60895 L207.6171,89.60724 C209.1909,89.60628 210.4473,90.79767 210.4482,92.25282 C210.4677,93.70794 209.1942,94.90089 207.6201,94.90185 L207.6201,94.90185 Z M218.8803,92.24769 C218.8812,93.72036 217.6077,94.89579 216.0525,94.89672 C214.4784,94.89768 213.2037,93.70629 213.2028,92.25114 C213.2019,90.77847 214.4754,89.60307 216.0492,89.60211 L218.8788,89.6004 L218.8794,90.45945 L218.8797,90.98541 L218.8803,92.24769 L218.8803,92.24769 Z" id="Shape" fill="#705845"></path>
            <polygon id="Shape" fill="#011534" points="154.24794 136.77501 132.32073 136.77501 132.32073 124.33899 154.24794 124.33899"></polygon>
            <polygon id="Shape" fill="#011534" points="132.31293 136.31439 136.84593 175.5315 141.945588 175.5315 141.945588 136.31439"></polygon>
            <polygon id="Shape" fill="#011534" points="154.26975 136.31439 144.117662 136.31439 144.117662 175.5315 149.78394 175.5315"></polygon>
            <path d="M161.73033,174.5751 C160.26654,172.4448 157.71672,171.0969 154.9308,171.0969 L152.28654,171.0969 L151.62549,175.575 L162.29697,175.575 L161.73033,174.5751 L161.73033,174.5751 Z" id="Shape" fill="#011534"></path>
            <path d="M131.65185,171.0534 C128.91315,171.0534 126.31611,172.4013 124.85232,174.5316 L124.19127,175.488 L134.86275,175.488 L134.20167,171.0099 L131.65185,171.0534 L131.65185,171.0534 Z" id="Shape" fill="#011534"></path>
            <path d="M174.6099,120.56913 L160.81188,94.86114 C159.35943,92.17416 156.59982,90.57648 153.62235,90.57648 L133.43358,90.57648 C130.31085,90.57648 127.47861,92.31939 126.09882,95.079 L113.3175,120.56913 L121.23318,120.56913 L130.45611,103.35786 C131.10969,102.1233 132.99786,102.55902 132.99786,104.01144 L132.99786,116.79282 L153.98544,116.79282 L153.98544,104.2293 C153.98544,102.77688 155.87361,102.34116 156.52719,103.57572 L165.67752,120.64176 L174.6099,120.64176 L174.6099,120.56913 Z" id="Shape" fill="#542337"></path>
            <path d="M175.191,122.52993 L167.92878,122.52993 C167.71092,123.90972 167.92878,125.5074 168.65499,127.17771 C170.03478,130.51827 172.79442,132.55167 174.8277,131.68023 C176.8611,130.80876 177.4422,127.46817 175.9899,124.12761 C175.7718,123.54663 175.4814,123.03828 175.191,122.52993 L175.191,122.52993 Z" id="Shape" fill="#542337"></path>
            <path d="M112.809,122.52993 L120.07122,122.52993 C120.28908,123.90972 120.07122,125.5074 119.34501,127.17771 C117.96522,130.51827 115.20558,132.55167 113.1723,131.68023 C111.1389,130.80876 110.5578,127.46817 112.0101,124.12761 C112.2282,123.54663 112.5186,123.03828 112.809,122.52993 L112.809,122.52993 Z" id="Shape" fill="#542337"></path>
            <path d="M143.446368,74.5428 L143.446368,74.5428 C141.292968,74.5428 139.57026,76.3086 139.57026,78.4191 L139.57026,90.04737 C139.57026,92.20077 141.336036,93.92349 143.446368,93.92349 L143.446368,93.92349 C145.599771,93.92349 147.3225,92.15769 147.3225,90.04737 L147.3225,78.4191 C147.3225,76.2657 145.599771,74.5428 143.446368,74.5428 L143.446368,74.5428 Z" id="Shape" fill="#7F4F0B"></path>
            <polygon id="Shape" fill="#000000" points="140.30973 83.63022 134.56755 80.3163 131.22507 74.5455 131.22507 67.9176 134.56755 62.1756 140.30973 58.833 146.937555 58.833 152.70834 62.1756 156.02223 67.9176 156.02223 74.5455 152.70834 80.3163 146.937555 83.63022"></polygon>
            <path d="M154.47177,78.7635 L132.72243,78.7635 L132.72243,68.9439 C132.72243,63.5604 137.58912,59.1675 143.61864,59.1675 L143.61864,59.1675 C149.64816,59.1675 154.51485,63.5604 154.51485,68.9439 L154.51485,78.7635 L154.47177,78.7635 Z" id="Shape" fill="#000000"></path>
            <path d="M133.62687,70.8822 L153.22281,70.8822 L153.22281,80.6586 C153.22281,86.08509 148.82988,90.43497 143.446368,90.43497 L143.446368,90.43497 C138.0198,90.43497 133.66992,86.04204 133.66992,80.6586 L133.66992,70.8822 L133.62687,70.8822 Z" id="Shape" fill="#7F4F0B"></path>
            <path d="M147.53784,76.9116 C148.3992,76.9116 149.08827,77.73 149.08827,78.7635 C149.08827,79.7973 148.3992,80.6154 147.53784,80.6154 C146.676471,80.6154 145.987383,79.7973 145.987383,78.7635 C145.987383,77.73 146.676471,76.9116 147.53784,76.9116 L147.53784,76.9116 Z" id="Shape" fill="#252728"></path>
            <path d="M139.82865,76.9116 C140.69001,76.9116 141.379104,77.73 141.379104,78.7635 C141.379104,79.7973 140.69001,80.6154 139.82865,80.6154 C138.96729,80.6154 138.27822,79.7973 138.27822,78.7635 C138.32127,77.73 139.01037,76.9116 139.82865,76.9116 L139.82865,76.9116 Z" id="Shape" fill="#252728"></path>
            <path d="M130.99971,70.7097 C133.49766,75.0165 139.18263,76.3947 143.661708,73.7676 C148.14078,71.1837 149.77737,65.5848 147.27942,61.278 L130.99971,70.7097 L130.99971,70.7097 Z" id="Shape" fill="#000000"></path>
            <path d="M146.805678,61.5363 C144.135459,63.7329 144.049322,67.9965 146.590335,71.0973 C149.13135,74.1984 153.35202,74.8875 156.02223,72.6909 L146.805678,61.5363 L146.805678,61.5363 Z" id="Shape" fill="#000000"></path>
            <path d="M139.7856,85.1376 C139.7856,86.30043 141.46524,87.24792 143.575572,87.24792 C145.685907,87.24792 147.36555,86.30043 147.36555,85.1376 L139.7856,85.1376 L139.7856,85.1376 Z" id="Shape" fill="#252728"></path>
            <path d="M141.336036,82.38123 C141.336036,83.07033 142.283532,83.63022 143.489436,83.63022 C144.652275,83.63022 145.642839,83.07033 145.642839,82.38123 L141.336036,82.38123 L141.336036,82.38123 Z" id="Shape" fill="#E19407"></path>
            <polygon id="Shape" fill="#FDF2CC" points="132.7689 124.17726 132.79125 116.60943 154.1139 116.67243 154.09152 124.24029 132.7689 124.17726"></polygon>
            <polygon id="Shape" fill="#011534" points="72.8511 141.3696 72.8511 132.85467 91.4931 132.85467 91.4931 141.3696 72.8511 141.3696"></polygon>
            <polygon id="Shape" fill="#011534" points="73.1019 141.3696 76.8633 175.5372 81.0945 175.5372 81.0945 141.3696"></polygon>
            <polygon id="Shape" fill="#011534" points="91.3203 141.3696 82.8969 141.3696 82.8969 175.5372 87.5982 175.5372"></polygon>
            <path d="M97.5108,174.7038 C96.2961,172.8477 94.1805,171.6735 91.869,171.6735 L89.6748,171.6735 L89.1264,175.575 L97.9809,175.575 L97.5108,174.7038 L97.5108,174.7038 Z" id="Shape" fill="#011534"></path>
            <path d="M72.5535,171.6357 C70.281,171.6357 68.1264,172.8099 66.9117,174.666 L66.3633,175.4994 L75.2178,175.4994 L74.6691,171.5976 L72.5535,171.6357 L72.5535,171.6357 Z" id="Shape" fill="#011534"></path>
            <path d="M109.308,132.70785 L97.3476,110.423832 C96.0888,108.09471 93.6966,106.70982 91.1157,106.70982 L73.6158,106.70982 C70.9089,106.70982 68.454,108.220608 67.2579,110.612679 L56.1789,132.70785 L63.0405,132.70785 L71.0349,117.78888 C71.6013,116.71875 73.2381,117.09645 73.2381,118.35543 L73.2381,129.43449 L91.4304,129.43449 L91.4304,118.54428 C91.4304,117.2853 93.0672,116.9076 93.6336,117.97773 L101.5653,132.77082 L109.308,132.77082 L109.308,132.70785 Z" id="Shape" fill="#C5E0DC"></path>
            <path d="M109.8117,134.4075 L103.5168,134.4075 C103.3278,135.60354 103.5168,136.9884 104.1462,138.43623 C105.3423,141.3318 107.7342,143.0946 109.497,142.3392 C111.2595,141.5838 111.7632,138.68805 110.5041,135.79239 C110.3151,135.28878 110.0634,134.84814 109.8117,134.4075 L109.8117,134.4075 Z" id="Shape" fill="#C5E0DC"></path>
            <path d="M55.7382,134.4075 L62.0331,134.4075 C62.2221,135.60354 62.0331,136.9884 61.4037,138.43623 C60.2076,141.3318 57.8157,143.0946 56.0529,142.3392 C54.2904,141.5838 53.7867,138.68805 55.0458,135.79239 C55.2345,135.28878 55.4865,134.84814 55.7382,134.4075 L55.7382,134.4075 Z" id="Shape" fill="#C5E0DC"></path>
            <path d="M109.308,132.70785 L97.3476,110.423832 C96.0888,108.09471 93.6966,106.70982 91.1157,106.70982 L73.6158,106.70982 C70.9089,106.70982 68.454,108.220608 67.2579,110.612679 L56.1789,132.70785 L63.0405,132.70785 L71.0349,117.78888 C71.6013,116.71875 73.2381,117.09645 73.2381,118.35543 L73.2381,129.43449 L91.4304,129.43449 L91.4304,118.54428 C91.4304,117.2853 93.0672,116.9076 93.6336,117.97773 L101.5653,132.77082 L109.308,132.77082 L109.308,132.70785 Z" id="Shape" fill-opacity="0.509978" fill="#F1D4AF"></path>
            <path d="M109.8117,134.4075 L103.5168,134.4075 C103.3278,135.60354 103.5168,136.9884 104.1462,138.43623 C105.3423,141.3318 107.7342,143.0946 109.497,142.3392 C111.2595,141.5838 111.7632,138.68805 110.5041,135.79239 C110.3151,135.28878 110.0634,134.84814 109.8117,134.4075 L109.8117,134.4075 Z" id="Shape" fill-opacity="0.509978" fill="#F1D4AF"></path>
            <path d="M55.7382,134.4075 L62.0331,134.4075 C62.2221,135.60354 62.0331,136.9884 61.4037,138.43623 C60.2076,141.3318 57.8157,143.0946 56.0529,142.3392 C54.2904,141.5838 53.7867,138.68805 55.0458,135.79239 C55.2345,135.28878 55.4865,134.84814 55.7382,134.4075 L55.7382,134.4075 Z" id="Shape" fill-opacity="0.509978" fill="#F1D4AF"></path>
            <path d="M90.6285,98.58729 C90.6285,95.47989 88.1187,92.97009 85.0113,92.97009 C81.9039,92.97009 79.3941,95.47989 79.3941,98.58729 L79.3941,100.81326 C79.3941,103.92066 81.9039,106.43049 85.0113,106.43049 C88.1187,106.43049 90.6285,103.92066 90.6285,100.81326 L90.6285,98.58729 L90.6285,98.58729 Z" id="Shape" fill="#FFA539"></path>
            <path d="M82.2951,92.81166 L82.2951,92.81166 C80.4285,92.81166 78.9351,94.34229 78.9351,96.17154 L78.9351,106.25118 C78.9351,108.117771 80.4657,109.611048 82.2951,109.611048 L82.2951,109.611048 C84.1617,109.611048 85.6548,108.080439 85.6548,106.25118 L85.6548,96.17154 C85.6548,94.30494 84.1617,92.81166 82.2951,92.81166 L82.2951,92.81166 Z" id="Shape" fill="#E19407"></path>
            <path d="M92.2611,99.8604 L71.8626,99.61632 L71.9784,89.9583 C72.0417,84.66333 76.6578,80.3973 82.3128,80.4648 L82.3128,80.4648 C87.9678,80.5326 92.4804,84.90789 92.4171,90.20286 L92.3016,99.86088 L92.2611,99.8604 Z" id="Shape" fill="#6D4D41"></path>
            <path d="M73.7835,89.63847 L90.7695,89.63847 L90.7695,98.11281 C90.7695,102.81663 86.9616,106.58715 82.2951,106.58715 L82.2951,106.58715 C77.5911,106.58715 73.8207,102.77931 73.8207,98.11281 L73.8207,89.63847 L73.7835,89.63847 Z" id="Shape" fill="#FAC11D"></path>
            <path d="M85.8417,94.86492 C86.5881,94.86492 87.1854,95.57424 87.1854,96.47019 C87.1854,97.36617 86.5881,98.07549 85.8417,98.07549 C85.095,98.07549 84.4977,97.36617 84.4977,96.47019 C84.4977,95.57424 85.095,94.86492 85.8417,94.86492 L85.8417,94.86492 Z" id="Shape" fill="#252728"></path>
            <path d="M79.1592,94.86492 C79.9059,94.86492 80.5032,95.57424 80.5032,96.47019 C80.5032,97.36617 79.9059,98.07549 79.1592,98.07549 C78.4125,98.07549 77.8152,97.36617 77.8152,96.47019 C77.8524,95.57424 78.45,94.86492 79.1592,94.86492 L79.1592,94.86492 Z" id="Shape" fill="#252728"></path>
            <path d="M71.5062,89.48913 C73.6713,93.22233 78.5991,94.41696 82.4817,92.13969 C86.3643,89.89977 87.7827,85.04664 85.6176,81.31344 L71.5062,89.48913 L71.5062,89.48913 Z" id="Shape" fill="#FFE876"></path>
            <path d="M85.3503,81.05835 C82.7967,82.93239 82.5018,86.82822 84.6693,89.79336 C86.8368,92.75853 90.6627,93.60252 93.2163,91.72851 L85.3503,81.05835 L85.3503,81.05835 Z" id="Shape" fill="#6D4D41"></path>
            <path d="M79.1217,101.99532 C79.1217,103.00329 80.5779,103.8246 82.407,103.8246 C84.2364,103.8246 85.6923,103.00329 85.6923,101.99532 L79.1217,101.99532 L79.1217,101.99532 Z" id="Shape" fill="#252728"></path>
            <path d="M80.4657,99.60609 C80.4657,100.20339 81.2871,100.6887 82.3323,100.6887 C83.3403,100.6887 84.1989,100.20339 84.1989,99.60609 L80.4657,99.60609 L80.4657,99.60609 Z" id="Shape" fill="#E19407"></path>
            <polygon id="Shape" fill="#E3E3D3" points="72.9177 132.85926 72.9498 129.13185 91.6515 129.2919 91.6197 133.01934"></polygon>
            <path d="M118.79874,51.0687 L118.79874,43.749 C118.79874,42.7404 117.98544,41.9271 116.97696,41.9271 L111.837,41.9271 C110.8284,41.9271 110.0151,42.7404 110.0151,43.749 C110.0151,44.7573 110.8284,45.5706 111.837,45.5706 L115.15518,45.5706 L115.15518,47.3274 C113.6262,48.4659 111.9996,49.4421 110.0151,49.4421 C107.2824,49.4421 105.5583,47.5227 105.5583,44.79 C105.5259,38.8692 112.2273,35.8764 117.13962,35.0304 C118.01799,34.9002 118.66863,34.152 118.66863,33.2736 C118.66863,32.2002 117.85533,31.4193 116.84685,31.4193 C116.74923,31.4193 116.61912,31.4193 116.52153,31.452 C109.6248,32.6232 101.9148,36.9174 101.9148,44.8224 C101.9148,49.2468 105.0054,52.9878 109.5273,52.9878 C111.3816,52.9878 113.2359,52.4349 115.18773,51.3288 C115.31784,52.2723 116.09862,52.8903 116.97696,52.8903 C117.98544,52.8903 118.79874,52.077 118.79874,51.0687 L118.79874,51.0687 Z" id="Shape" fill="#8C2018"></path>
            <path d="M137.19003,51.2637 L137.19003,40.4307 C137.19003,39.4872 136.40925,38.739 135.46584,38.739 C134.55495,38.739 133.7742,39.4872 133.7742,40.4307 L133.7742,46.6116 C132.92835,48.5961 131.04153,49.572 129.83784,49.572 C129.12216,49.572 127.43049,49.572 127.43049,46.2213 L127.43049,40.4307 C127.43049,39.4872 126.68226,38.739 125.73885,38.739 C124.79544,38.739 124.04721,39.4872 124.04721,40.4307 L124.04721,46.2213 C124.04721,50.4504 126.22683,52.9878 129.83784,52.9878 C131.39937,52.9878 132.76572,52.3047 133.7742,51.1986 L133.7742,51.2637 C133.7742,52.2072 134.55495,52.9554 135.46584,52.9554 C136.40925,52.9554 137.19003,52.2072 137.19003,51.2637 L137.19003,51.2637 Z" id="Shape" fill="#8C2018"></path>
            <path d="M157.338,42.1224 C157.338,39.6825 154.9632,38.6415 152.84862,38.6415 C148.06647,38.6415 141.625182,41.862 141.625182,47.3274 C141.625182,51.0036 144.520509,53.0205 148.0014,53.0205 C150.24609,53.0205 152.8161,52.3698 155.64636,50.8734 C156.19941,50.5806 156.52473,49.995 156.52473,49.377 C156.52473,48.4011 155.74395,47.6853 154.83306,47.6853 C154.57281,47.6853 154.31256,47.7504 154.05231,47.8806 C151.54737,49.1817 149.59545,49.8324 148.16406,49.8324 C146.960388,49.8324 145.594056,49.4421 145.138611,48.2058 C148.68456,48.1407 157.338,47.2299 157.338,42.1224 L157.338,42.1224 Z M153.69447,42.3174 C153.69447,43.6839 149.07495,45.1479 145.724181,45.3105 C147.05799,43.1958 150.31116,41.8947 152.75103,41.8947 L152.8161,41.8947 C153.40167,41.8947 153.69447,42.0573 153.69447,42.3174 L153.69447,42.3174 Z" id="Shape" fill="#8C2018"></path>
            <path d="M171.43509,48.7914 C171.43509,46.2864 169.71093,44.5947 166.2951,43.749 C165.74205,43.5864 164.83116,43.2936 164.83116,42.6753 C164.83116,42.2199 165.28659,41.862 166.19748,41.862 C166.84812,41.862 167.59635,42.1548 168.40965,42.6102 C168.6699,42.7404 168.9627,42.8055 169.22295,42.8055 C169.84104,42.8055 170.42661,42.5127 170.71941,41.9271 C170.84952,41.667 170.94714,41.4066 170.94714,41.1138 C170.94714,40.5282 170.62182,39.9426 170.06877,39.6498 C168.80004,38.9343 167.66142,38.6415 165.93723,38.6415 C163.52988,38.6415 161.44785,40.0728 161.44785,42.6753 C161.44785,44.79 162.94431,46.3839 165.44925,47.0346 C168.01926,47.6853 168.01926,48.4986 168.01926,48.7914 C168.01926,49.377 167.49876,49.8324 166.62039,49.8324 C165.67698,49.8324 164.47332,49.3119 164.01786,48.8238 C163.69254,48.4659 163.23711,48.3033 162.8142,48.3033 C162.35874,48.3033 161.93583,48.4659 161.61051,48.7914 C161.28519,49.1166 161.09001,49.5396 161.09001,49.995 C161.09001,50.418 161.25267,50.841 161.57799,51.1662 C162.68406,52.3047 164.73357,53.0205 166.62039,53.0205 C169.38561,53.0205 171.43509,51.2313 171.43509,48.7914 L171.43509,48.7914 Z" id="Shape" fill="#8C2018"></path>
            <path d="M186.0852,51.2313 C186.0852,50.2554 185.337,49.5072 184.3935,49.5072 C184.296,49.5072 184.2309,49.5396 184.1334,49.5396 C183.9057,49.572 183.6453,49.6047 183.3852,49.6047 C181.4658,49.6047 180.6525,48.7263 180.6525,46.5141 L180.6525,42.3501 L184.0356,42.3501 C184.9791,42.3501 185.7273,41.6019 185.7273,40.6584 C185.7273,39.7149 184.9791,38.9667 184.0356,38.9667 L180.6525,38.9667 L180.6525,34.5423 C180.6525,33.5991 179.9043,32.8509 178.9608,32.8509 C178.0173,32.8509 177.2691,33.5991 177.2691,34.5423 L177.2691,38.9667 L176.4234,38.9667 C175.4799,38.9667 174.7317,39.7149 174.7317,40.6584 C174.7317,41.6019 175.4799,42.3501 176.4234,42.3501 L177.2691,42.3501 L177.2691,46.5141 C177.2691,50.3853 179.2209,52.9878 183.3201,52.9878 C185.0442,52.9878 186.0852,52.5 186.0852,51.2313 L186.0852,51.2313 Z" id="Shape" fill="#8C2018"></path>
        </g>
    </g>
</svg>