<?xml version="1.0" encoding="UTF-8" standalone="no"?>
<svg width="96px" height="73px" viewBox="0 0 96 73" version="1.1" xmlns="http://www.w3.org/2000/svg" xmlns:xlink="http://www.w3.org/1999/xlink">
    <!-- Generator: Sketch 40 (33762) - http://www.bohemiancoding.com/sketch -->
    <title>Group</title>
    <desc>Created with Sketch.</desc>
    <defs></defs>
    <g id="Page-1" stroke="none" stroke-width="1" fill="none" fill-rule="evenodd">
        <g id="Group">
            <path d="M48,72.6913 C21.5918,72.6913 0.1838,56.512 0.1838,36.5537 C0.1838,16.596 21.5918,0.416 48,0.416 C74.4082,0.416 95.8162,16.596 95.8162,36.5537 C95.8162,56.512 74.4082,72.6913 48,72.6913 L48,72.6913 Z" id="Shape" fill="#FDF2CC"></path>
            <path d="M47.9391382,70.7499 C22.9497,70.7054 2.719,55.3592 2.7526,36.4732 C2.7862,17.587 23.0714,2.313 48.0608618,2.358 C73.0503,2.402 93.281,17.748 93.2474,36.6343 C93.2138,55.5203 72.9286,70.7944 47.9391382,70.7499 L47.9391382,70.7499 Z" id="Shape" fill-opacity="0.763858" fill="#E08E79"></path>
            <polygon id="Shape" fill="#008C9F" points="61.0773 62.9118 42.56249 62.9118 42.56249 40.529 61.0773 40.529"></polygon>
            <polygon id="Shape" fill="#00B4CE" points="61.0773 40.529 51.84566 21.137 42.56249 40.529"></polygon>
            <polygon id="Shape" fill="#00B4CE" points="57.12812 62.9118 50.12383 62.9118 50.12383 51.2424 57.12812 51.2424 57.12812 62.9118"></polygon>
            <path d="M48.406503,49.7933 L45.2237,49.7933 C44.94399,49.7933 44.72216,49.428 44.72216,48.985 L44.72216,43.8633 C44.72216,43.4125 44.94882,43.055 45.2237,43.055 L48.406503,43.055 C48.686204,43.055 48.908036,43.4203 48.908036,43.8633 L48.908036,48.9928 C48.903214,49.428 48.681381,49.7933 48.406503,49.7933 L48.406503,49.7933 Z" id="Shape" fill="#005F6C"></path>
            <path d="M56.62658,49.7933 L53.44378,49.7933 C53.16408,49.7933 52.94224,49.428 52.94224,48.985 L52.94224,43.8633 C52.94224,43.4125 53.1689,43.055 53.44378,43.055 L56.62658,43.055 C56.90629,43.055 57.12812,43.4203 57.12812,43.8633 L57.12812,48.9928 C57.1233,49.428 56.90146,49.7933 56.62658,49.7933 L56.62658,49.7933 Z" id="Shape" fill="#005F6C"></path>
            <polygon id="Shape" fill="#343838" points="49.65329 32.815 46.79912 32.815 46.79912 25.6755 49.65329 25.6755 49.65329 32.815"></polygon>
            <path d="M56.6691,58.4712 C56.6691,58.9651 56.47908,59.3654 56.24468,59.3654 C56.01028,59.3654 55.82027,58.9651 55.82027,58.4712 C55.82027,57.9774 56.01028,57.5771 56.24468,57.5771 C56.47908,57.5771 56.6691,57.9774 56.6691,58.4712 L56.6691,58.4712 Z" id="Shape" fill="#005F6C"></path>
            <polygon id="Shape" fill="#D1881F" points="38.72223 38.8576 38.20238 38.0631 33.8564 42.2147 33.8564 36.9355 33.0246 36.9355 33.0246 46.0588 30.2174 44.4956 31.1948 41.0103 30.4254 40.7027 29.4273 44.1368 28.2836 43.4961 27.9717 44.4443 33.0246 47.1608 33.0246 59.2312 33.8564 59.2312 33.8564 43.4961"></polygon>
            <path d="M33.1278,42.3662 C33.148,44.7971 31.1938,46.7841 28.7629,46.8043 C26.332,46.8245 24.345,44.8703 24.3248,42.4394 C24.3046,40.0085 26.2589,38.0215 28.6897,38.0013 C31.1206,37.9811 33.1076,39.9354 33.1278,42.3662 L33.1278,42.3662 Z" id="Shape" fill-opacity="0.907982" fill="#A6AE31"></path>
            <path d="M38.72223,33.7742 C38.72223,37.7023 36.3156,40.8866 33.3469,40.8866 C30.3783,40.8866 27.9717,37.7023 27.9717,33.7742 C27.9717,29.8461 30.3783,26.6618 33.3469,26.6618 C36.3156,26.6618 38.72223,29.8461 38.72223,33.7742 L38.72223,33.7742 Z" id="Shape" fill-opacity="0.701774" fill="#A6AE31"></path>
            <path d="M40.94524,38.9406 C39.68953,41.1156 37.3391,42.1094 35.6953,41.1604 C34.0516,40.2113 33.737,37.6789 34.9927,35.5039 C36.2484,33.329 38.5989,32.3352 40.24264,33.2842 C41.88638,34.2332 42.20094,36.7657 40.94524,38.9406 L40.94524,38.9406 Z" id="Shape" fill-opacity="0.780488" fill="#A6AE31"></path>
            <polygon id="Shape" fill="#D1881F" points="66.4657 28.351 66.9856 27.5566 71.3315 31.7082 71.3315 26.429 72.1633 26.429 72.1633 35.5523 74.9705 33.989 73.9932 30.5037 74.7626 30.1962 75.7607 33.6302 76.9044 32.9896 77.2163 33.9378 72.1633 36.6543 72.1633 48.7247 71.3315 48.7247 71.3315 32.9896"></polygon>
            <path d="M72.0601,31.8597 C72.0399,34.2906 73.9942,36.2775 76.425,36.2978 C78.8559,36.318 80.8429,34.3637 80.8631,31.9328 C80.8833,29.502 78.9291,27.515 76.4982,27.4948 C74.0673,27.4746 72.0803,29.4288 72.0601,31.8597 L72.0601,31.8597 Z" id="Shape" fill-opacity="0.907982" fill="#A6AE31"></path>
            <path d="M66.4657,23.268 C66.4657,27.1957 68.8723,30.38 71.841,30.38 C74.8097,30.38 77.2163,27.1957 77.2163,23.268 C77.2163,19.34 74.8097,16.155 71.841,16.155 C68.8723,16.155 66.4657,19.34 66.4657,23.268 L66.4657,23.268 Z" id="Shape" fill-opacity="0.701774" fill="#A6AE31"></path>
            <path d="M64.2427,28.4341 C65.4984,30.609 67.8489,31.6028 69.4926,30.6538 C71.1364,29.7048 71.4509,27.1723 70.1952,24.9974 C68.9395,22.822 66.589,21.829 64.9453,22.778 C63.3016,23.727 62.987,26.2591 64.2427,28.4341 L64.2427,28.4341 Z" id="Shape" fill-opacity="0.780488" fill="#A6AE31"></path>
            <path d="M39.13448,17.367 L39.13448,10.451 C39.13448,10.055 38.81488,9.723 38.41859,9.723 C38.02229,9.723 37.7027,10.055 37.7027,10.451 L37.7027,12.638 L34.4173,12.638 L34.4173,10.451 C34.4173,10.055 34.0977,9.723 33.7014,9.723 C33.3051,9.723 32.9855,10.055 32.9855,10.451 L32.9855,17.367 C32.9855,17.764 33.3051,18.083 33.7014,18.083 C34.0977,18.083 34.4173,17.764 34.4173,17.367 L34.4173,13.98 L37.7027,13.98 L37.7027,17.367 C37.7027,17.764 38.02229,18.083 38.41859,18.083 C38.81488,18.083 39.13448,17.764 39.13448,17.367 L39.13448,17.367 Z" id="Shape" fill="#8A150E"></path>
            <path d="M45.79264,14.593 C45.79264,13.405 45.01283,12.471 43.78559,12.471 C42.00865,12.471 40.35955,14.312 40.37233,16.051 C40.37233,17.227 41.15214,18.147 42.37938,18.147 C44.15632,18.147 45.79264,16.319 45.79264,14.593 L45.79264,14.593 Z M44.46313,14.581 C44.46313,15.578 43.41486,16.818 42.37938,16.818 C41.88081,16.818 41.70184,16.473 41.70184,16.025 C41.70184,15.041 42.77568,13.801 43.78559,13.801 C44.25859,13.801 44.46313,14.133 44.46313,14.581 L44.46313,14.581 Z" id="Shape" fill="#8A150E"></path>
            <path d="M55.73629,17.431 L55.73629,15.156 C55.73629,13.494 54.87978,12.497 53.46079,12.497 C52.66819,12.497 52.05458,12.893 51.61993,13.494 C51.23642,12.855 50.58445,12.497 49.72794,12.497 C49.11432,12.497 48.654101,12.753 48.257805,13.187 L48.257805,13.162 C48.257805,12.791 47.9637794,12.497 47.593051,12.497 C47.222323,12.497 46.9283,12.791 46.9283,13.162 L46.9283,17.431 C46.9283,17.789 47.222323,18.096 47.593051,18.096 C47.9637794,18.096 48.257805,17.789 48.257805,17.431 L48.257805,14.99 C48.590183,14.21 49.25494,13.826 49.72794,13.826 C50.00918,13.826 50.67393,13.826 50.67393,15.156 L50.67393,17.431 C50.67393,17.789 50.96796,18.096 51.33869,18.096 C51.70941,18.096 52.00344,17.789 52.00344,17.431 L52.00344,14.977 C52.3486,14.197 52.98779,13.826 53.46079,13.826 C53.74203,13.826 54.394,13.826 54.394,15.156 L54.394,17.431 C54.394,17.789 54.70081,18.096 55.07154,18.096 C55.42948,18.096 55.73629,17.789 55.73629,17.431 L55.73629,17.431 Z" id="Shape" fill="#8A150E"></path>
            <path d="M63.0145,13.865 C63.0145,12.906 62.0813,12.497 61.2503,12.497 C59.3711,12.497 56.83995,13.762 56.83995,15.91 C56.83995,17.355 57.97771,18.147 59.3456,18.147 C60.2276,18.147 61.2376,17.892 62.3497,17.304 C62.5671,17.189 62.6949,16.958 62.6949,16.716 C62.6949,16.332 62.3881,16.051 62.0302,16.051 C61.9279,16.051 61.8256,16.076 61.7233,16.127 C60.739,16.639 59.972,16.894 59.4095,16.894 C58.9365,16.894 58.3996,16.741 58.2206,16.255 C59.614,16.23 63.0145,15.872 63.0145,13.865 L63.0145,13.865 Z M61.5827,13.941 C61.5827,14.478 59.7674,15.054 58.4507,15.118 C58.9748,14.287 60.2532,13.775 61.212,13.775 L61.2376,13.775 C61.4677,13.775 61.5827,13.839 61.5827,13.941 L61.5827,13.941 Z" id="Shape" fill="#8A150E"></path>
        </g>
    </g>
</svg>