<?xml version="1.0" encoding="UTF-8" standalone="no"?>
<svg width="288px" height="218px" viewBox="0 0 288 218" version="1.1" xmlns="http://www.w3.org/2000/svg" xmlns:xlink="http://www.w3.org/1999/xlink">
    <!-- Generator: Sketch 40 (33762) - http://www.bohemiancoding.com/sketch -->
    <title>Group 3</title>
    <desc>Created with Sketch.</desc>
    <defs></defs>
    <g id="Page-1" stroke="none" stroke-width="1" fill="none" fill-rule="evenodd">
        <g id="Group-3" transform="translate(0.000000, -2.000000)">
            <path d="M144,219.591 C64.7754,219.591 0.5514,171.054 0.5514,111.1788 C0.5514,51.3039 64.7754,2.766 144,2.766 C223.2246,2.766 287.4486,51.3039 287.4486,111.1788 C287.4486,171.054 223.2246,219.591 144,219.591 L144,219.591 Z" id="Shape" fill="#FDF2CC"></path>
            <path d="M143.817415,213.768 C68.8491,213.633 8.157,167.595 8.2578,110.937 C8.3586,54.279 69.2142,8.4567 144.182585,8.5902 C219.1509,8.7237 279.843,54.7623 279.7422,111.4203 C279.6414,168.078 218.7858,213.9 143.817415,213.768 L143.817415,213.768 Z" id="Shape" fill-opacity="0.763858" fill="#987F69"></path>
            <polygon id="Shape" fill="#023649" points="180.7938 155.025 176.9529 155.0409 176.6751 87.7932 180.516 87.7773"></polygon>
            <polygon id="Shape" fill="#A6AE31" points="165.11355 146.1654 155.45529 146.2053 155.41758 137.0787 165.07584 137.0388"></polygon>
            <polygon id="Shape" fill="#023649" points="111.3255 155.025 107.4846 155.0409 107.2068 87.7932 111.0477 87.7773"></polygon>
            <path d="M165.93981,87.7773 L165.93981,95.1579 C165.93981,99.2367 169.2417,102.5388 173.32047,102.5388 C177.3993,102.5388 180.7011,99.2367 180.7011,95.1579 L180.7011,87.7773 L165.93981,87.7773 L151.17849,87.7773 L151.17849,95.1579 C151.17849,99.2367 154.48038,102.5388 158.55915,102.5388 C162.63795,102.5388 165.93981,99.2367 165.93981,95.1579 L165.93981,87.7773 L165.93981,87.7773 Z M136.41717,87.7773 L136.41717,95.1579 C136.41717,99.2367 139.71906,102.5388 143.797846,102.5388 C147.87663,102.5388 151.17849,99.2367 151.17849,95.1579 L151.17849,87.7773 L136.41717,87.7773 L121.65585,87.7773 L121.65585,95.1579 C121.65585,99.2367 124.95774,102.5388 129.03651,102.5388 C133.11531,102.5388 136.41717,99.2367 136.41717,95.1579 L136.41717,87.7773 L136.41717,87.7773 L136.41717,87.7773 Z M106.8945,87.7773 L106.8945,87.7773 L106.8945,95.1579 C106.8945,99.2367 110.1963,102.5388 114.27519,102.5388 C118.35399,102.5388 121.65585,99.2367 121.65585,95.1579 L121.65585,87.7773 L106.8945,87.7773 L106.8945,87.7773 Z" id="Shape" fill="#E8DDCB"></path>
            <path d="M165.93981,87.7773 L165.93981,92.8143 C165.93981,95.5977 169.2417,97.851 173.32047,97.851 C177.3993,97.851 180.7011,95.5977 180.7011,92.8143 L180.7011,87.7773 L165.93981,87.7773 L151.17849,87.7773 L151.17849,92.8143 C151.17849,95.5977 154.48038,97.851 158.55915,97.851 C162.63795,97.851 165.93981,95.5977 165.93981,92.8143 L165.93981,87.7773 L165.93981,87.7773 Z M136.4172,87.7773 L136.4172,92.8143 C136.4172,95.5977 139.71906,97.851 143.797846,97.851 C147.87663,97.851 151.17849,95.5977 151.17849,92.8143 L151.17849,87.7773 L136.4172,87.7773 L121.65585,87.7773 L121.65585,92.8143 C121.65585,95.5977 124.95774,97.851 129.03651,97.851 C133.11531,97.851 136.4172,95.5977 136.4172,92.8143 L136.4172,87.7773 L136.4172,87.7773 L136.4172,87.7773 Z M106.8945,87.7773 L106.8945,87.7773 L106.8945,92.8143 C106.8945,95.5977 110.1963,97.851 114.27519,97.851 C118.35399,97.851 121.65585,95.5977 121.65585,92.8143 L121.65585,87.7773 L106.8945,87.7773 L106.8945,87.7773 Z" id="Shape" fill="#9D8555"></path>
            <polygon id="Shape" fill="#9D8555" points="130.18107 145.5858 120.54603 145.704 121.41537 137.8275 129.11898 137.7333"></polygon>
            <polygon id="Shape" fill="#016563" points="107.2989 166.53 107.2068 144.2529 181.0134 143.9481 181.1055 166.227 107.2989 166.53"></polygon>
            <path d="M174.6252,139.3122 L168.18105,127.4241 C167.50278,126.1815 166.22076,125.4462 164.84082,125.4519 L155.48418,125.4906 C154.03692,125.4966 152.72763,126.3099 152.09343,127.5915 L146.218614,139.4295 L149.88723,139.4145 L154.12872,131.4201 C154.42926,130.8465 155.30517,131.0448 155.30796,131.718 L155.33244,137.6418 L165.05931,137.6016 L165.03525,131.7789 C165.03246,131.1057 165.90672,130.9002 166.212,131.4711 L170.48544,139.3629 L174.6252,139.3458 L174.6252,139.3122 Z" id="Shape" fill="#705845"></path>
            <path d="M174.8982,140.2197 L171.53244,140.2338 C171.4341,140.8737 171.53814,141.6138 171.87789,142.3863 C172.52379,143.9319 173.80665,144.8691 174.7473,144.4614 C175.6881,144.0534 175.9509,142.5042 175.2714,140.9589 C175.1694,140.6898 175.0338,140.4549 174.8982,140.2197 L174.8982,140.2197 Z" id="Shape" fill="#705845"></path>
            <path d="M145.986771,140.3394 L149.35248,140.3253 C149.45607,140.9643 149.35818,141.7053 149.02479,142.4808 C148.3917,144.0318 147.11664,144.9795 146.172576,144.5793 C145.228512,144.1794 144.95286,142.6323 145.619604,141.0813 C145.719462,140.8116 145.853115,140.5755 145.986771,140.3394 L145.986771,140.3394 Z" id="Shape" fill="#705845"></path>
            <path d="M165.02928,121.5051 C165.02241,119.8437 163.67493,118.5075 162.01353,118.5144 C160.3521,118.521 159.01572,119.8686 159.02256,121.53 L159.02748,122.7201 C159.03435,124.3815 160.38183,125.718 162.04326,125.7111 C163.70469,125.7042 165.04107,124.3569 165.0342,122.6955 L165.02928,121.5051 L165.02928,121.5051 Z" id="Shape" fill="#9D8555"></path>
            <path d="M160.56087,118.4355 L160.56087,118.4355 C159.56286,118.4397 158.76783,119.2614 158.77188,120.2394 L158.79414,125.6286 C158.79825,126.6267 159.61992,127.4217 160.59798,127.4178 L160.59798,127.4178 C161.59599,127.4136 162.39102,126.5919 162.38697,125.6139 L162.36471,120.2247 C162.3606,119.2266 161.55888,118.4316 160.56087,118.4355 L160.56087,118.4355 Z" id="Shape" fill="#9D8555"></path>
            <path d="M165.94941,120.8676 L155.21508,120.7851 L155.24949,116.3046 C155.26839,113.8479 157.68573,111.8619 160.66158,111.8847 L160.66158,111.8847 C163.63743,111.9075 166.02399,113.9307 166.00509,116.3871 L165.97068,120.8679 L165.94941,120.8676 Z" id="Shape" fill="#000000"></path>
            <path d="M156.09072,116.8038 L165.17262,116.7663 L165.19134,121.2972 C165.20172,123.8121 163.17411,125.8365 160.67907,125.847 L160.67907,125.847 C158.16408,125.8572 156.13971,123.8298 156.12939,121.3347 L156.11067,116.8038 L156.09072,116.8038 Z" id="Shape" fill="#CDB380"></path>
            <path d="M162.46164,119.5257 C162.86082,119.5239 163.18176,119.9019 163.18374,120.381 C163.18572,120.8598 162.86793,121.2405 162.46872,121.242 C162.06951,121.2438 161.74857,120.8658 161.74659,120.3867 C161.74464,119.9079 162.06243,119.5272 162.46164,119.5257 L162.46164,119.5257 Z" id="Shape" fill="#252728"></path>
            <path d="M158.88876,119.5404 C159.28794,119.5386 159.60888,119.9166 159.61086,120.3957 C159.61284,120.8748 159.29505,121.2552 158.89584,121.257 C158.49663,121.2585 158.17569,120.8805 158.17371,120.4017 C158.19171,119.9226 158.5095,119.5419 158.88876,119.5404 L158.88876,119.5404 Z" id="Shape" fill="#252728"></path>
            <path d="M154.73241,117.1566 C155.89836,119.1477 158.53575,119.7756 160.60656,118.5495 C162.67749,117.3432 163.42527,114.7452 162.25932,112.7541 L154.73241,117.1566 L154.73241,117.1566 Z" id="Shape" fill="#000000"></path>
            <path d="M162.02271,112.8222 C160.78938,113.8452 160.75764,115.8213 161.94123,117.2535 C163.12482,118.686 165.08223,118.9971 166.31556,117.9741 L162.02271,112.8222 L162.02271,112.8222 Z" id="Shape" fill="#000000"></path>
            <path d="M158.88453,123.3528 C158.88675,123.8916 159.66702,124.3278 160.64508,124.3236 C161.62314,124.3197 162.39975,123.8772 162.39753,123.3384 L158.88453,123.3528 L158.88453,123.3528 Z" id="Shape" fill="#252728"></path>
            <path d="M159.59784,122.0724 C159.59916,122.3919 160.03935,122.6493 160.59822,122.6472 C161.13717,122.6448 161.59518,122.3835 161.59386,122.064 L159.59784,122.0724 L159.59784,122.0724 Z" id="Shape" fill="#BC5757"></path>
            <polygon id="Shape" fill="#705845" points="180.7938 85.6917 106.9866 85.6917 114.38433 70.9302 173.3961 70.9302"></polygon>
            <polygon id="Shape" fill="#023649" points="106.8945 87.7773 106.8945 85.6917 180.7011 85.6917 180.7011 87.7773"></polygon>
            <path d="M136.71153,139.266 L131.52342,129.8565 C130.97736,128.8731 129.95451,128.2965 128.85807,128.3088 L121.42368,128.3928 C120.27375,128.406 119.23806,129.0594 118.74144,130.0815 L114.14094,139.5213 L117.05586,139.4883 L120.38046,133.1118 C120.61599,132.6546 121.31313,132.8073 121.31916,133.3419 L121.37238,138.0486 L129.10095,137.9613 L129.04863,133.3347 C129.04257,132.8001 129.73608,132.6318 129.9819,133.0836 L133.42251,139.3299 L136.71183,139.2927 L136.71153,139.266 Z" id="Shape" fill="#09476B"></path>
            <path d="M136.93362,139.9857 L134.25939,140.016 C134.1849,140.5248 134.27178,141.1122 134.54616,141.7245 C135.06819,142.9488 136.09287,143.6862 136.83804,143.3568 C137.58318,143.0274 137.78322,141.7947 137.23446,140.5707 C137.15181,140.3577 137.04273,140.1717 136.93362,139.9857 L136.93362,139.9857 Z" id="Shape" fill="#09476B"></path>
            <path d="M113.9619,140.2455 L116.63613,140.2152 C116.72211,140.7225 116.64855,141.3117 116.38806,141.9297 C115.89387,143.1657 114.88614,143.9259 114.13371,143.6133 C113.3814,143.301 113.1534,142.0734 113.6745,140.8371 C113.7522,140.6223 113.8569,140.4339 113.9619,140.2455 L113.9619,140.2455 Z" id="Shape" fill="#09476B"></path>
            <path d="M129.34236,123.8577 C129.33549,122.1963 127.98801,120.8598 126.32658,120.8667 C124.66515,120.8736 123.32877,122.2209 123.33564,123.8826 L123.34056,125.0727 C123.34743,126.7341 124.69488,128.0703 126.35631,128.0637 C128.01774,128.0568 129.35412,126.7092 129.34725,125.0478 L129.34236,123.8577 L129.34236,123.8577 Z" id="Shape" fill="#CDB380"></path>
            <path d="M124.87395,120.7881 L124.87395,120.7881 C123.87594,120.792 123.08091,121.6137 123.08493,122.592 L123.10722,127.9812 C123.11133,128.979 123.933,129.7743 124.91106,129.7701 L124.91106,129.7701 C125.90907,129.7659 126.7041,128.9442 126.70005,127.9662 L126.67779,122.577 C126.67365,121.5789 125.87196,120.7839 124.87395,120.7881 L124.87395,120.7881 Z" id="Shape" fill="#D9BE7F"></path>
            <path d="M120.24663,119.2653 L129.32853,119.2278 L129.34725,123.759 C129.35763,126.2739 127.33002,128.2983 124.83501,128.3085 L124.83501,128.3085 C122.32002,128.319 120.29562,126.2913 120.2853,123.7962 L120.26658,119.2653 L120.24663,119.2653 Z" id="Shape" fill="#D9BE7F"></path>
            <path d="M126.77469,121.878 C127.1739,121.8762 127.49484,122.2542 127.49682,122.7333 C127.4988,123.2124 127.18098,123.5928 126.7818,123.5946 C126.38259,123.5961 126.06165,123.2184 126.05967,122.7393 C126.05769,122.2602 126.37548,121.8795 126.77469,121.878 L126.77469,121.878 Z" id="Shape" fill="#016563"></path>
            <path d="M123.20181,121.8927 C123.60102,121.8912 123.92196,122.2689 123.92394,122.748 C123.92592,123.2271 123.6081,123.6078 123.20892,123.6093 C122.80971,123.6111 122.48877,123.2331 122.48679,122.754 C122.50476,122.2749 122.82258,121.8942 123.20181,121.8927 L123.20181,121.8927 Z" id="Shape" fill="#016563"></path>
            <path d="M123.19761,125.7051 C123.19983,126.2442 123.9801,126.6801 124.95816,126.6759 C125.93619,126.672 126.71283,126.2298 126.71061,125.6907 L123.19761,125.7051 L123.19761,125.7051 Z" id="Shape" fill="#252728"></path>
            <path d="M124.19154,124.5018 C124.19154,124.7316 124.50771,124.9185 124.9101,124.9185 C125.29815,124.9185 125.62869,124.7316 125.62869,124.5018 L124.19154,124.5018 L124.19154,124.5018 Z" id="Shape" fill="#D97F7F"></path>
            <path d="M131.58105,128.5116 C130.99674,128.514 130.53309,127.9497 130.5303,127.2738 L130.5303,127.2738 L130.50939,122.2146 C130.49484,118.6893 128.08428,115.8498 125.11659,115.8621 L125.11659,115.8621 L125.11719,116.0082 L125.11719,116.0082 L125.11659,115.8621 C122.1489,115.8744 119.76189,118.7337 119.77647,122.2587 L119.79738,127.3182 L119.79738,127.3182 C119.80023,128.0124 119.32584,128.5623 118.75689,128.5647 C118.48011,128.5659 118.25058,128.8407 118.25196,129.1695 C118.25331,129.4983 118.48509,129.7713 118.76187,129.7701 C119.82285,129.7656 121.54194,129.0099 121.53321,126.891 C121.52142,124.0416 120.41631,120.8133 121.93236,119.2908 C122.75139,120.2739 123.89175,120.8718 125.13726,120.8667 C126.39816,120.8616 127.51809,120.2358 128.32905,119.2644 L128.73111,119.8107 C129.64521,121.4691 128.78052,124.3221 128.79099,126.861 C128.79975,128.9799 130.52502,129.7215 131.58603,129.717 C131.86281,129.7161 132.09231,129.441 132.09096,129.1122 C132.08961,128.7834 131.85783,128.5104 131.58105,128.5116 L131.58105,128.5116 Z" id="Shape" fill="#705845"></path>
            <polygon id="Shape" fill="#F1D4AF" points="192.9945 138.3153 190.5576 138.3153 190.5576 94.7832 192.9945 94.7832"></polygon>
            <polygon id="Shape" fill="#F1D4AF" points="258.4203 138.3153 255.9831 138.3153 255.9831 94.7832 258.4203 94.7832"></polygon>
            <polygon id="Shape" fill="#00DFFE" points="210.3693 134.313 201.4887 134.313 201.4887 125.9214 210.3693 125.9214"></polygon>
            <path d="M244.8477,87.8724 L244.8477,94.6587 C244.8477,98.409 247.8837,101.445 251.634,101.445 C255.3843,101.445 258.4203,98.409 258.4203,94.6587 L258.4203,87.8724 L244.8477,87.8724 L231.2751,87.8724 L231.2751,94.6587 C231.2751,98.409 234.3111,101.445 238.0614,101.445 C241.8117,101.445 244.8477,98.409 244.8477,94.6587 L244.8477,87.8724 L244.8477,87.8724 Z M217.7025,87.8724 L217.7025,94.6587 C217.7025,98.409 220.7385,101.445 224.4888,101.445 C228.2391,101.445 231.2751,98.409 231.2751,94.6587 L231.2751,87.8724 L217.7025,87.8724 L204.1302,87.8724 L204.1302,94.6587 C204.1302,98.409 207.1659,101.445 210.9162,101.445 C214.6665,101.445 217.7025,98.409 217.7025,94.6587 L217.7025,87.8724 L217.7025,87.8724 L217.7025,87.8724 Z M190.5576,87.8724 L190.5576,87.8724 L190.5576,94.6587 C190.5576,98.409 193.5936,101.445 197.3439,101.445 C201.0942,101.445 204.1302,98.409 204.1302,94.6587 L204.1302,87.8724 L190.5576,87.8724 L190.5576,87.8724 Z" id="Shape" fill="#774F38"></path>
            <path d="M244.8477,89.2407 L244.8477,94.6587 C244.8477,97.6527 247.8837,100.0764 251.634,100.0764 C255.3843,100.0764 258.4203,97.6527 258.4203,94.6587 L258.4203,89.2407 L244.8477,89.2407 L231.2751,89.2407 L231.2751,94.6587 C231.2751,97.6527 234.3111,100.0764 238.0614,100.0764 C241.8117,100.0764 244.8477,97.6527 244.8477,94.6587 L244.8477,89.2407 L244.8477,89.2407 Z M217.7025,89.2407 L217.7025,94.6587 C217.7025,97.6527 220.7385,100.0764 224.4888,100.0764 C228.2391,100.0764 231.2751,97.6527 231.2751,94.6587 L231.2751,89.2407 L217.7025,89.2407 L204.1302,89.2407 L204.1302,94.6587 C204.1302,97.6527 207.1659,100.0764 210.9162,100.0764 C214.6665,100.0764 217.7025,97.6527 217.7025,94.6587 L217.7025,89.2407 L217.7025,89.2407 L217.7025,89.2407 Z M190.5576,89.2407 L190.5576,89.2407 L190.5576,94.6587 C190.5576,97.6527 193.5936,100.0764 197.3439,100.0764 C201.0942,100.0764 204.1302,97.6527 204.1302,94.6587 L204.1302,89.2407 L190.5576,89.2407 L190.5576,89.2407 Z" id="Shape" fill="#E08E79"></path>
            <polygon id="Shape" fill="#C5E0DC" points="258.4203 87.8724 190.5576 87.8724 197.3595 74.2998 251.6184 74.2998"></polygon>
            <polygon id="Shape" fill="#C5E0DC" points="190.5576 148.0575 190.5576 127.5741 258.4203 127.5741 258.4203 148.0575 190.5576 148.0575"></polygon>
            <path d="M219.1812,127.575 L213.3015,116.6199 C212.6826,115.4751 211.5066,114.7941 210.2379,114.7941 L201.6348,114.7941 C200.304,114.7941 199.0971,115.5369 198.5091,116.7129 L193.0626,127.575 L196.4358,127.575 L200.3658,120.2406 C200.6445,119.7147 201.4491,119.9004 201.4491,120.5193 L201.4491,125.9658 L210.3924,125.9658 L210.3924,120.612 C210.3924,119.9931 211.197,119.8074 211.4757,120.3336 L215.3748,127.6059 L219.1812,127.6059 L219.1812,127.575 Z" id="Shape" fill="#C5E0DC"></path>
            <path d="M219.429,128.4105 L216.3342,128.4105 C216.2415,128.9985 216.3342,129.6795 216.6438,130.3911 C217.2318,131.8146 218.4078,132.6813 219.2742,132.3099 C220.1406,131.9385 220.3881,130.515 219.7692,129.0915 C219.6765,128.8437 219.5526,128.6271 219.429,128.4105 L219.429,128.4105 Z" id="Shape" fill="#C5E0DC"></path>
            <path d="M192.846,128.4105 L195.9405,128.4105 C196.0335,128.9985 195.9405,129.6795 195.6312,130.3911 C195.0432,131.8146 193.8672,132.6813 193.0005,132.3099 C192.1341,131.9385 191.8866,130.515 192.5055,129.0915 C192.5982,128.8437 192.7221,128.6271 192.846,128.4105 L192.846,128.4105 Z" id="Shape" fill="#C5E0DC"></path>
            <path d="M219.1812,127.575 L213.3015,116.6199 C212.6826,115.4751 211.5066,114.7941 210.2379,114.7941 L201.6348,114.7941 C200.304,114.7941 199.0971,115.5369 198.5091,116.7129 L193.0626,127.575 L196.4358,127.575 L200.3658,120.2406 C200.6445,119.7147 201.4491,119.9004 201.4491,120.5193 L201.4491,125.9658 L210.3924,125.9658 L210.3924,120.612 C210.3924,119.9931 211.197,119.8074 211.4757,120.3336 L215.3748,127.6059 L219.1812,127.6059 L219.1812,127.575 Z" id="Shape" fill-opacity="0.509978" fill="#F1D4AF"></path>
            <path d="M219.429,128.4105 L216.3342,128.4105 C216.2415,128.9985 216.3342,129.6795 216.6438,130.3911 C217.2318,131.8146 218.4078,132.6813 219.2742,132.3099 C220.1406,131.9385 220.3881,130.515 219.7692,129.0915 C219.6765,128.8437 219.5526,128.6271 219.429,128.4105 L219.429,128.4105 Z" id="Shape" fill-opacity="0.509978" fill="#F1D4AF"></path>
            <path d="M192.846,128.4105 L195.9405,128.4105 C196.0335,128.9985 195.9405,129.6795 195.6312,130.3911 C195.0432,131.8146 193.8672,132.6813 193.0005,132.3099 C192.1341,131.9385 191.8866,130.515 192.5055,129.0915 C192.5982,128.8437 192.7221,128.6271 192.846,128.4105 L192.846,128.4105 Z" id="Shape" fill-opacity="0.509978" fill="#F1D4AF"></path>
            <path d="M209.9982,110.8011 C209.9982,109.2735 208.7643,108.0396 207.2367,108.0396 C205.7091,108.0396 204.4752,109.2735 204.4752,110.8011 L204.4752,111.8955 C204.4752,113.4231 205.7091,114.6567 207.2367,114.6567 C208.7643,114.6567 209.9982,113.4231 209.9982,111.8955 L209.9982,110.8011 L209.9982,110.8011 Z" id="Shape" fill="#FFA539"></path>
            <path d="M205.9014,107.9616 L205.9014,107.9616 C204.9837,107.9616 204.2496,108.7143 204.2496,109.6134 L204.2496,114.5688 C204.2496,115.4862 205.0023,116.2203 205.9014,116.2203 L205.9014,116.2203 C206.8191,116.2203 207.5532,115.4679 207.5532,114.5688 L207.5532,109.6134 C207.5532,108.6957 206.8191,107.9616 205.9014,107.9616 L205.9014,107.9616 Z" id="Shape" fill="#E19407"></path>
            <path d="M210.801,111.4269 L200.7729,111.3069 L200.8296,106.5591 C200.8608,103.956 203.13,101.8587 205.9101,101.892 L205.9101,101.892 C208.6902,101.9253 210.9087,104.076 210.8775,106.6791 L210.8208,111.4272 L210.801,111.4269 Z" id="Shape" fill="#6D4D41"></path>
            <path d="M201.717,106.4016 L210.0675,106.4016 L210.0675,110.5677 C210.0675,112.8801 208.1955,114.7338 205.9014,114.7338 L205.9014,114.7338 C203.589,114.7338 201.7353,112.8618 201.7353,110.5677 L201.7353,106.4016 L201.717,106.4016 Z" id="Shape" fill="#FAC11D"></path>
            <path d="M207.645,108.9711 C208.0119,108.9711 208.3056,109.3197 208.3056,109.7604 C208.3056,110.2008 208.0119,110.5494 207.645,110.5494 C207.2778,110.5494 206.9844,110.2008 206.9844,109.7604 C206.9844,109.3197 207.2778,108.9711 207.645,108.9711 L207.645,108.9711 Z" id="Shape" fill="#252728"></path>
            <path d="M204.36,108.9711 C204.7269,108.9711 205.0206,109.3197 205.0206,109.7604 C205.0206,110.2008 204.7269,110.5494 204.36,110.5494 C203.9928,110.5494 203.6991,110.2008 203.6991,109.7604 C203.7174,109.3197 204.0111,108.9711 204.36,108.9711 L204.36,108.9711 Z" id="Shape" fill="#252728"></path>
            <path d="M200.5974,106.3284 C201.6621,108.1635 204.0846,108.7509 205.9932,107.6313 C207.9018,106.5303 208.5993,104.1444 207.5349,102.309 L200.5974,106.3284 L200.5974,106.3284 Z" id="Shape" fill="#FFE876"></path>
            <path d="M207.4035,102.1836 C206.148,103.1049 206.0031,105.0201 207.0687,106.4778 C208.1343,107.9355 210.015,108.3504 211.2705,107.4291 L207.4035,102.1836 L207.4035,102.1836 Z" id="Shape" fill="#6D4D41"></path>
            <path d="M204.3414,112.4766 C204.3414,112.9719 205.0572,113.3757 205.9566,113.3757 C206.8557,113.3757 207.5715,112.9719 207.5715,112.4766 L204.3414,112.4766 L204.3414,112.4766 Z" id="Shape" fill="#252728"></path>
            <path d="M205.0023,111.3018 C205.0023,111.5955 205.4061,111.834 205.9197,111.834 C206.4153,111.834 206.8374,111.5955 206.8374,111.3018 L205.0023,111.3018 L205.0023,111.3018 Z" id="Shape" fill="#E19407"></path>
            <path d="M252.0459,129.492 L246.1662,118.5372 C245.5473,117.3921 244.3713,116.7111 243.1023,116.7111 L234.4992,116.7111 C233.1687,116.7111 231.9618,117.4539 231.3738,118.6299 L225.9273,129.492 L229.3002,129.492 L233.2305,122.1579 C233.5089,121.6317 234.3135,121.8174 234.3135,122.4363 L234.3135,127.8828 L243.2571,127.8828 L243.2571,122.5293 C243.2571,121.9101 244.0617,121.7247 244.3404,122.2506 L248.2395,129.5232 L252.0459,129.5232 L252.0459,129.492 Z" id="Shape" fill="#774F38"></path>
            <path d="M252.2934,130.3278 L249.1989,130.3278 C249.1059,130.9155 249.1989,131.5965 249.5082,132.3081 C250.0962,133.7319 251.2722,134.5983 252.1389,134.2269 C253.0053,133.8555 253.2528,132.432 252.6339,131.0085 C252.5412,130.761 252.4173,130.5444 252.2934,130.3278 L252.2934,130.3278 Z" id="Shape" fill="#774F38"></path>
            <path d="M225.7104,130.3278 L228.8052,130.3278 C228.8979,130.9155 228.8052,131.5965 228.4956,132.3081 C227.9076,133.7319 226.7319,134.5983 225.8652,134.2269 C224.9988,133.8555 224.7513,132.432 225.3702,131.0085 C225.4629,130.761 225.5868,130.5444 225.7104,130.3278 L225.7104,130.3278 Z" id="Shape" fill="#774F38"></path>
            <path d="M252.0399,129.492 L246.1599,118.5372 C245.541,117.3921 244.365,116.7111 243.0963,116.7111 L234.4932,116.7111 C233.1624,116.7111 231.9555,117.4539 231.3675,118.6299 L225.921,129.492 L229.2942,129.492 L233.2242,122.1579 C233.5029,121.6317 234.3075,121.8174 234.3075,122.4363 L234.3075,127.8828 L243.2511,127.8828 L243.2511,122.5293 C243.2511,121.9101 244.0557,121.7247 244.3341,122.2506 L248.2335,129.5232 L252.0399,129.5232 L252.0399,129.492 Z" id="Shape" fill-opacity="0.517738" fill="#E08E79"></path>
            <path d="M252.2874,130.3278 L249.1926,130.3278 C249.0999,130.9155 249.1926,131.5965 249.5022,132.3081 C250.0902,133.7319 251.2662,134.5983 252.1326,134.2269 C252.999,133.8555 253.2468,132.432 252.6279,131.0085 C252.5349,130.761 252.411,130.5444 252.2874,130.3278 L252.2874,130.3278 Z" id="Shape" fill-opacity="0.517738" fill="#E08E79"></path>
            <path d="M225.7044,130.3278 L228.7989,130.3278 C228.8919,130.9155 228.7989,131.5965 228.4896,132.3081 C227.9016,133.7319 226.7256,134.5983 225.8592,134.2269 C224.9925,133.8555 224.745,132.432 225.3639,131.0085 C225.4569,130.761 225.5805,130.5444 225.7044,130.3278 L225.7044,130.3278 Z" id="Shape" fill-opacity="0.517738" fill="#E08E79"></path>
            <path d="M238.9881,103.5471 L238.9881,103.5471 C242.8572,103.5471 245.9961,106.6821 245.9961,110.5464 L245.9961,114.8919 C245.9961,116.3664 244.7997,117.5457 243.339,117.5457 L234.6528,117.5457 C233.1765,117.5457 231.9957,116.3508 231.9957,114.8919 L231.9957,110.5464 C231.9801,106.6821 235.1034,103.5471 238.9881,103.5471 L238.9881,103.5471 Z" id="Shape" fill="#011534"></path>
            <path d="M243.108,112.167 C243.108,110.6391 241.8741,109.4055 240.3465,109.4055 C238.8189,109.4055 237.585,110.6391 237.585,112.167 L237.585,113.2611 C237.585,114.7887 238.8189,116.0226 240.3465,116.0226 C241.8741,116.0226 243.108,114.7887 243.108,113.2611 L243.108,112.167 L243.108,112.167 Z" id="Shape" fill="#FFA539"></path>
            <path d="M239.0112,109.3275 L239.0112,109.3275 C238.0935,109.3275 237.3594,110.0799 237.3594,110.9793 L237.3594,115.9344 C237.3594,116.8521 238.1118,117.5862 239.0112,117.5862 L239.0112,117.5862 C239.9289,117.5862 240.663,116.8338 240.663,115.9344 L240.663,110.9793 C240.663,110.0616 239.9289,109.3275 239.0112,109.3275 L239.0112,109.3275 Z" id="Shape" fill="#E19407"></path>
            <path d="M234.8268,108.4491 L243.1773,108.4491 L243.1773,112.2744 C243.1773,114.3978 241.3053,116.0997 239.0112,116.0997 L239.0112,116.0997 C236.6988,116.0997 234.8451,114.3807 234.8451,112.2744 L234.8451,108.4491 L234.8268,108.4491 Z" id="Shape" fill="#FAC11D"></path>
            <path d="M240.7548,110.337 C241.1217,110.337 241.4154,110.6856 241.4154,111.126 C241.4154,111.5667 241.1217,111.9153 240.7548,111.9153 C240.3876,111.9153 240.0939,111.5667 240.0939,111.126 C240.0939,110.6856 240.3876,110.337 240.7548,110.337 L240.7548,110.337 Z" id="Shape" fill="#252728"></path>
            <path d="M237.4695,110.337 C237.8367,110.337 238.1304,110.6856 238.1304,111.126 C238.1304,111.5667 237.8367,111.9153 237.4695,111.9153 C237.1026,111.9153 236.8089,111.5667 236.8089,111.126 C236.8272,110.6856 237.1209,110.337 237.4695,110.337 L237.4695,110.337 Z" id="Shape" fill="#252728"></path>
            <path d="M237.4512,113.8422 C237.4512,114.3378 238.167,114.7416 239.0664,114.7416 C239.9655,114.7416 240.6813,114.3378 240.6813,113.8422 L237.4512,113.8422 L237.4512,113.8422 Z" id="Shape" fill="#252728"></path>
            <path d="M238.1118,112.6677 C238.1118,112.9614 238.5156,113.1999 239.0295,113.1999 C239.5251,113.1999 239.9472,112.9614 239.9472,112.6677 L238.1118,112.6677 L238.1118,112.6677 Z" id="Shape" fill="#E19407"></path>
            <path d="M243.2754,110.175 L242.8572,110.1753 L242.8569,109.4799 L241.1658,109.4811 C240.3483,109.4814 239.6703,110.0208 239.5128,110.7423 C239.3826,110.6643 239.2341,110.6208 239.0853,110.6211 C238.9275,110.6211 238.7787,110.6646 238.6488,110.7429 C238.4904,110.0214 237.8118,109.4742 236.994,109.4748 L235.3032,109.4757 L235.3035,110.1714 L234.8949,110.1714 L234.8949,110.4324 L235.3038,110.4321 L235.3041,111.0579 C235.3047,111.9273 236.0577,112.6395 236.9961,112.6389 C237.9345,112.6383 238.6866,111.9339 238.686,111.0558 C238.686,111.0558 238.686,111.0558 238.686,111.0471 L238.6953,111.0558 C238.7976,110.9427 238.9368,110.8818 239.0949,110.8818 C239.2527,110.8818 239.3922,110.9424 239.4945,111.0555 L239.4945,111.0555 C239.4948,111.9246 240.2478,112.6371 241.1862,112.6365 C242.1153,112.6359 242.8767,111.9312 242.8764,111.0534 L242.8758,110.4273 L243.294,110.4273 L243.294,110.175 L243.2754,110.175 Z M236.9958,112.3869 C236.2155,112.3875 235.5927,111.7965 235.5921,111.075 L235.5918,110.4492 L235.5915,110.1885 L235.5915,109.7625 L236.9943,109.7616 C237.7749,109.7613 238.3977,110.352 238.398,111.0735 C238.4079,111.795 237.7764,112.3863 236.9958,112.3869 L236.9958,112.3869 Z M242.5791,111.0708 C242.5794,111.801 241.9479,112.3839 241.1769,112.3842 C240.3963,112.3848 239.7642,111.7941 239.7639,111.0726 C239.7633,110.3424 240.3948,109.7595 241.1754,109.7592 L242.5782,109.7583 L242.5785,110.1843 L242.5785,110.445 L242.5791,111.0708 L242.5791,111.0708 Z" id="Shape" fill="#705845"></path>
            <path d="M97.3029,57.5214 L97.3029,32.2269 C97.3029,30.7935 96.1932,29.6373 94.7133,29.6373 C93.7422,29.6373 93.0486,30.0537 92.5863,30.7935 L82.8753,45.1287 L73.1643,30.7935 C72.6558,30.0537 71.8695,29.6373 71.0373,29.6373 C69.5574,29.6373 68.4015,30.7935 68.4015,32.2269 L68.4015,57.5214 C68.4015,58.9551 69.5574,60.111 70.9911,60.111 C72.4245,60.111 73.5807,58.9551 73.5807,57.5214 L73.5807,40.4118 L80.7018,51.1863 C81.2568,52.0188 82.0428,52.4349 82.8291,52.4349 C83.6613,52.4349 84.4476,52.0188 85.0026,51.1863 L92.1237,40.4118 L92.1237,57.5214 C92.1237,58.9551 93.2799,60.111 94.7133,60.111 C96.147,60.111 97.3029,58.9551 97.3029,57.5214 L97.3029,57.5214 Z" id="Shape" fill="#8C2018"></path>
            <path d="M124.8555,57.7065 L124.8555,48.7356 C124.8555,43.1403 121.10985,39.8106 114.82089,39.8106 C112.1388,39.8106 108.717,40.458 106.2198,42.354 C105.6186,42.8166 105.2949,43.5564 105.2949,44.25 C105.2949,44.7588 105.4338,45.2673 105.7575,45.7296 C106.2198,46.3308 106.9596,46.7007 107.6997,46.7007 C108.2082,46.7007 108.717,46.5159 109.1331,46.1922 C110.3817,45.2673 112.5087,44.4351 114.82089,44.4351 C117.45672,44.4351 118.79775,45.1749 119.44515,46.1922 C108.6708,46.7934 104.0001,50.724 104.0463,54.8856 C104.0463,57.5679 105.8961,60.2961 110.7978,60.2961 C113.8035,60.2961 117.22551,59.2326 120.04629,57.3366 L120.04629,57.7065 C120.04629,59.0013 121.10985,60.111 122.45088,60.111 C123.79191,60.111 124.8555,59.0013 124.8555,57.7065 L124.8555,57.7065 Z M120.04629,52.1574 C116.71683,54.4233 114.03477,55.5795 111.0753,55.5795 C109.8267,55.5795 109.1793,55.1631 109.1793,54.5619 C109.1793,51.8337 118.28907,50.5851 120.04629,50.5851 L120.04629,52.1574 Z" id="Shape" fill="#8C2018"></path>
            <path d="M147.22926,43.7412 C147.22926,43.1865 146.998047,42.6315 146.628108,42.2154 C145.240836,40.6893 143.483628,39.8106 141.587691,39.8106 C139.46055,39.8106 137.70333,41.0592 136.91721,42.4002 C136.87098,41.0592 135.80739,39.9957 134.51262,39.9957 C133.17159,39.9957 132.06177,41.0592 132.06177,42.4002 L132.06177,57.7065 C132.06177,59.0475 133.17159,60.111 134.51262,60.111 C135.80739,60.111 136.91721,59.0475 136.91721,57.7065 L136.91721,50.4465 C137.42589,47.0244 139.46055,44.5275 141.125268,44.5275 C142.003872,44.5275 142.558779,44.8974 142.97496,45.4059 C143.483628,45.9147 144.13102,46.1922 144.824655,46.1922 C146.165685,46.1922 147.22926,45.0825 147.22926,43.7412 L147.22926,43.7412 Z" id="Shape" fill="#8C2018"></path>
            <path d="M171.2907,57.7065 C171.2907,57.1515 171.10572,56.5506 170.68956,56.1342 L163.1058,47.9493 L168.83985,44.2962 C169.48725,43.8801 169.81095,43.0938 169.81095,42.354 C169.81095,41.0592 168.79362,39.9957 167.49882,39.9957 C166.94391,39.9957 166.43526,40.1343 165.97284,40.4118 L158.15787,45.591 L158.15787,32.2269 C158.15787,30.8859 157.09428,29.7762 155.75328,29.7762 C154.41225,29.7762 153.34866,30.8859 153.34866,32.2269 L153.34866,57.7065 C153.34866,59.0475 154.41225,60.111 155.75328,60.111 C157.09428,60.111 158.15787,59.0475 158.15787,57.7065 L158.15787,49.6602 L167.08263,59.325 C167.59131,59.88 168.14622,60.111 168.88611,60.111 C170.18088,60.111 171.2907,59.0475 171.2907,57.7065 L171.2907,57.7065 Z" id="Shape" fill="#8C2018"></path>
            <path d="M198.0342,44.805 C198.0342,41.3367 194.6586,39.8571 191.6529,39.8571 C184.8552,39.8571 175.6992,44.4351 175.6992,52.2036 C175.6992,57.429 179.8146,60.2961 184.7625,60.2961 C187.9533,60.2961 191.6064,59.3712 195.6297,57.2442 C196.4157,56.8278 196.878,55.9956 196.878,55.1169 C196.878,53.7297 195.7683,52.7124 194.4735,52.7124 C194.1036,52.7124 193.7337,52.8048 193.3638,52.9899 C189.8031,54.8394 187.0284,55.7643 184.9938,55.7643 C183.2829,55.7643 181.3407,55.2093 180.6933,53.4522 C185.7336,53.3598 198.0342,52.065 198.0342,44.805 L198.0342,44.805 Z M192.855,45.0825 C192.855,47.0244 186.2886,49.1055 181.5258,49.3365 C183.4215,46.3308 188.0457,44.4813 191.514,44.4813 L191.6064,44.4813 C192.4389,44.4813 192.855,44.7123 192.855,45.0825 L192.855,45.0825 Z" id="Shape" fill="#8C2018"></path>
            <path d="M219.5985,57.7527 C219.5985,56.3655 218.535,55.302 217.194,55.302 C217.0551,55.302 216.9627,55.3482 216.8241,55.3482 C216.5004,55.3944 216.1305,55.4406 215.7603,55.4406 C213.0321,55.4406 211.8762,54.192 211.8762,51.0477 L211.8762,45.1287 L216.6852,45.1287 C218.0262,45.1287 219.09,44.0649 219.09,42.7239 C219.09,41.3829 218.0262,40.3194 216.6852,40.3194 L211.8762,40.3194 L211.8762,34.0305 C211.8762,32.6895 210.8124,31.6257 209.4714,31.6257 C208.1304,31.6257 207.0669,32.6895 207.0669,34.0305 L207.0669,40.3194 L205.8645,40.3194 C204.5235,40.3194 203.46,41.3829 203.46,42.7239 C203.46,44.0649 204.5235,45.1287 205.8645,45.1287 L207.0669,45.1287 L207.0669,51.0477 C207.0669,56.5506 209.8413,60.2499 215.6679,60.2499 C218.1189,60.2499 219.5985,59.5563 219.5985,57.7527 L219.5985,57.7527 Z" id="Shape" fill="#8C2018"></path>
            <polygon id="Shape" fill="#D95A43" points="93.1638 136.1082 90.6468 136.1424 90.0345 91.1811 92.5515 91.1466"></polygon>
            <polygon id="Shape" fill="#D95A43" points="33.8103 136.9167 31.2933 136.9509 30.681 91.9893 33.198 91.9551"></polygon>
            <polygon id="Shape" fill="#023649" points="51.7275 133.3263 42.5553 133.4514 42.4374 124.7841 51.6093 124.6593"></polygon>
            <path d="M80.0802,86.7939 L80.1648,92.9988 C80.2113,96.4278 83.025,99.1659 86.454,99.1191 C89.883,99.0723 92.6211,96.2586 92.5743,92.8296 L92.49,86.6247 L80.0802,86.7939 L67.6704,86.9628 L67.755,93.1677 C67.8015,96.5967 70.6152,99.3348 74.0442,99.288 C77.4732,99.2415 80.2113,96.4278 80.1648,92.9988 L80.0802,86.7939 L80.0802,86.7939 Z M55.2606,87.132 L55.3452,93.3366 C55.392,96.7656 58.2057,99.5037 61.6347,99.4572 C65.0637,99.4104 67.8015,96.5967 67.755,93.1677 L67.6704,86.9628 L55.2606,87.132 L42.8511,87.3009 L42.9354,93.5058 C42.9822,96.9348 45.7959,99.6729 49.2249,99.6261 C52.6539,99.5793 55.392,96.7656 55.3452,93.3366 L55.2606,87.132 L55.2606,87.132 L55.2606,87.132 Z M30.4413,87.4698 L30.4413,87.4698 L30.5259,93.6747 C30.5724,97.1037 33.3861,99.8418 36.8151,99.795 C40.2441,99.7485 42.9822,96.9348 42.9354,93.5058 L42.8511,87.3009 L30.4413,87.4698 L30.4413,87.4698 Z" id="Shape" fill="#E55A5A"></path>
            <path d="M80.0508,87.7278 L80.1165,92.5401 C80.1528,95.1999 82.9482,97.3152 86.3649,97.2684 C89.7819,97.2219 92.5185,95.0313 92.4822,92.3718 L92.4168,87.5592 L80.0508,87.7278 L67.6851,87.8961 L67.7508,92.7087 C67.7868,95.3682 70.5822,97.4835 73.9992,97.437 C77.4159,97.3905 80.1528,95.1999 80.1165,92.5401 L80.0508,87.7278 L80.0508,87.7278 Z M55.3194,88.0647 L55.3848,92.877 C55.4211,95.5365 58.2165,97.6518 61.6332,97.6053 C65.0502,97.5588 67.7868,95.3682 67.7508,92.7087 L67.6851,87.8961 L55.3194,88.0647 L42.9534,88.233 L43.0191,93.0456 C43.0554,95.7051 45.8505,97.8204 49.2675,97.7739 C52.6845,97.7271 55.4211,95.5365 55.3848,92.877 L55.3194,88.0647 L55.3194,88.0647 L55.3194,88.0647 Z M30.5877,88.4013 L30.5877,88.4013 L30.6534,93.2139 C30.6894,95.8734 33.4848,97.9887 36.9018,97.9422 C40.3185,97.8957 43.0554,95.7051 43.0191,93.0456 L42.9534,88.233 L30.5877,88.4013 L30.5877,88.4013 Z" id="Shape" fill="#ECD078"></path>
            <polygon id="Shape" fill="#705845" points="92.49 86.6247 30.4413 87.4698 36.4914 74.9754 86.1018 74.2998"></polygon>
            <polygon id="Shape" fill="#016563" points="80.9481 136.683 71.727 136.8765 72.4578 127.6359 79.8306 127.4811"></polygon>
            <polygon id="Shape" fill="#C02841" points="31.5318 154.4718 31.1958 129.7941 93.2445 128.949 93.5805 153.6267 31.5318 154.4718"></polygon>
            <path d="M60.8139,127.476 L54.5868,116.244 C53.9313,115.0701 52.7073,114.3834 51.3966,114.4014 L42.5112,114.5223 C41.1366,114.5412 39.9006,115.3251 39.3099,116.5479 L33.8373,127.8435 L37.3212,127.7961 L41.2773,120.1656 C41.5575,119.6184 42.3912,119.7987 42.3999,120.438 L42.4764,126.0636 L51.7137,125.9376 L51.6384,120.408 C51.6297,119.769 52.458,119.5659 52.7532,120.1053 L56.8827,127.5615 L60.8142,127.5081 L60.8139,127.476 Z" id="Shape" fill="#542337"></path>
            <path d="M61.0812,128.3358 L57.885,128.3793 C57.7974,128.9877 57.9027,129.6897 58.2324,130.4205 C58.8597,131.8824 60.0864,132.7608 60.9762,132.3651 C61.866,131.9694 62.1018,130.4955 61.4424,129.0339 C61.3431,128.7795 61.212,128.5575 61.0812,128.3358 L61.0812,128.3358 Z" id="Shape" fill="#542337"></path>
            <path d="M33.6252,128.7096 L36.8214,128.6661 C36.9255,129.2721 36.8394,129.9765 36.5298,130.716 C35.9424,132.1947 34.74,133.1061 33.84,132.7347 C32.9397,132.3633 32.664,130.8966 33.2832,129.4176 C33.3756,129.1605 33.5004,128.9352 33.6252,128.7096 L33.6252,128.7096 Z" id="Shape" fill="#542337"></path>
            <path d="M46.8219,107.4054 L46.8219,107.4054 C45.8742,107.4183 45.1266,108.2058 45.1392,109.1346 L45.2088,114.2526 C45.2217,115.2003 46.0092,115.9482 46.938,115.9353 L46.938,115.9353 C47.8857,115.9224 48.6336,115.1349 48.6207,114.2061 L48.5511,109.0881 C48.5382,108.1404 47.7696,107.3925 46.8219,107.4054 L46.8219,107.4054 Z" id="Shape" fill="#7F4F0B"></path>
            <polygon id="Shape" fill="#000000" points="45.4959 111.4239 42.9486 109.9998 41.4429 107.4798 41.4033 104.5629 42.84 102.0156 45.3471 100.5099 48.2643 100.4703 50.8242 101.9067 52.3173 104.4141 52.3569 107.3313 50.9331 109.8909 48.4128 111.384"></polygon>
            <path d="M51.6999,109.197 L42.1272,109.3275 L42.0684,105.0054 C42.0363,102.636 44.1519,100.6734 46.8057,100.6374 L46.8057,100.6374 C49.4592,100.6011 51.6276,102.5055 51.66,104.8749 L51.7188,109.1967 L51.6999,109.197 Z" id="Shape" fill="#000000"></path>
            <path d="M42.4782,105.8532 L51.1029,105.7356 L51.1614,110.0385 C51.1941,112.4268 49.2867,114.3678 46.9173,114.3999 L46.9173,114.3999 C44.5287,114.4326 42.588,112.5252 42.5556,110.1558 L42.4971,105.8529 L42.4782,105.8532 Z" id="Shape" fill="#7F4F0B"></path>
            <path d="M48.6369,108.4236 C49.0161,108.4182 49.3242,108.7743 49.3305,109.2294 C49.3365,109.6842 49.0383,110.0484 48.6591,110.0538 C48.2799,110.0589 47.9718,109.7028 47.9655,109.248 C47.9595,108.7929 48.2577,108.4287 48.6369,108.4236 L48.6369,108.4236 Z" id="Shape" fill="#252728"></path>
            <path d="M45.2439,108.4698 C45.6231,108.4644 45.9312,108.8205 45.9372,109.2756 C45.9435,109.7304 45.6453,110.0946 45.2661,110.1 C44.8869,110.1051 44.5788,109.749 44.5725,109.2942 C44.5854,108.8388 44.8836,108.4746 45.2439,108.4698 L45.2439,108.4698 Z" id="Shape" fill="#252728"></path>
            <path d="M41.3208,105.7929 C42.4461,107.6736 44.9565,108.246 46.9119,107.0631 C48.8679,105.8988 49.5546,103.4247 48.4293,101.5443 L41.3208,105.7929 L41.3208,105.7929 Z" id="Shape" fill="#000000"></path>
            <path d="M48.2226,101.6607 C47.0604,102.6435 47.0481,104.5206 48.1851,105.8703 C49.3221,107.2197 51.1836,107.4978 52.3458,106.515 L48.2226,101.6607 L48.2226,101.6607 Z" id="Shape" fill="#000000"></path>
            <path d="M45.2742,112.0905 C45.2811,112.6023 46.026,113.0091 46.9548,112.9965 C47.8836,112.9839 48.6174,112.5567 48.6105,112.0449 L45.2742,112.0905 L45.2742,112.0905 Z" id="Shape" fill="#252728"></path>
            <path d="M45.9402,110.868 C45.9441,111.1713 46.3647,111.4119 46.8954,111.4047 C47.4072,111.3978 47.8398,111.1455 47.8356,110.8422 L45.9402,110.868 L45.9402,110.868 Z" id="Shape" fill="#E19407"></path>
            <path d="M87.384,128.8278 L82.2981,119.6538 C81.7629,118.695 80.763,118.1343 79.6926,118.149 L72.4353,118.2477 C71.3127,118.263 70.3032,118.9035 69.8208,119.9022 L65.3508,129.1278 L68.1963,129.0891 L71.4276,122.8569 C71.6565,122.4099 72.3372,122.5572 72.3444,123.0795 L72.4071,127.674 L79.9515,127.5711 L79.89,123.0549 C79.8828,122.5329 80.5596,122.367 80.8005,122.8077 L84.1734,128.8977 L87.3843,128.8539 L87.384,128.8278 Z" id="Shape" fill="#542337"></path>
            <path d="M87.6024,129.5298 L84.9918,129.5652 C84.9204,130.0623 85.0065,130.6356 85.2756,131.2326 C85.788,132.4266 86.79,133.1439 87.5166,132.8208 C88.2435,132.4977 88.4358,131.2938 87.8973,130.1001 C87.8163,129.8925 87.7095,129.711 87.6024,129.5298 L87.6024,129.5298 Z" id="Shape" fill="#542337"></path>
            <path d="M65.1777,129.8352 L67.7883,129.7995 C67.8735,130.2945 67.803,130.8699 67.5501,131.4738 C67.0704,132.6816 66.0882,133.4259 65.3532,133.1226 C64.6179,132.8193 64.3926,131.6214 64.8984,130.4133 C64.974,130.2036 65.0757,130.0194 65.1777,129.8352 L65.1777,129.8352 Z" id="Shape" fill="#542337"></path>
            <path d="M87.384,128.8278 L82.2981,119.6538 C81.7629,118.695 80.763,118.1343 79.6926,118.149 L72.4353,118.2477 C71.3127,118.263 70.3032,118.9035 69.8208,119.9022 L65.3508,129.1278 L68.1963,129.0891 L71.4276,122.8569 C71.6565,122.4099 72.3372,122.5572 72.3444,123.0795 L72.4071,127.674 L79.9515,127.5711 L79.89,123.0549 C79.8828,122.5329 80.5596,122.367 80.8005,122.8077 L84.1734,128.8977 L87.3843,128.8539 L87.384,128.8278 Z" id="Shape" fill-opacity="0.537694" fill="#C1281A"></path>
            <path d="M87.6024,129.5298 L84.9918,129.5652 C84.9204,130.0623 85.0065,130.6356 85.2756,131.2326 C85.788,132.4266 86.79,133.1439 87.5166,132.8208 C88.2435,132.4977 88.4358,131.2938 87.8973,130.1001 C87.8163,129.8925 87.7095,129.711 87.6024,129.5298 L87.6024,129.5298 Z" id="Shape" fill-opacity="0.537694" fill="#C1281A"></path>
            <path d="M65.1777,129.8352 L67.7883,129.7995 C67.8735,130.2945 67.803,130.8699 67.5501,131.4738 C67.0704,132.6816 66.0882,133.4259 65.3532,133.1226 C64.6179,132.8193 64.3926,131.6214 64.8984,130.4133 C64.974,130.2036 65.0757,130.0194 65.1777,129.8352 L65.1777,129.8352 Z" id="Shape" fill-opacity="0.537694" fill="#C1281A"></path>
            <path d="M76.1898,116.5716 C76.1928,117.537 75.4125,118.3221 74.4468,118.3251 C73.4814,118.3278 72.6963,117.5475 72.6936,116.5821 C72.6906,115.6164 73.4709,114.8316 74.4366,114.8286 C75.402,114.8256 76.1871,115.6062 76.1898,116.5716 L76.1898,116.5716 Z" id="Shape" fill="#F3804B"></path>
            <path d="M79.8,116.5575 C79.8027,117.5229 79.0224,118.308 78.057,118.3107 C77.0916,118.3137 76.3065,117.5334 76.3035,116.568 C76.3008,115.6023 77.0811,114.8175 78.0465,114.8145 C79.0119,114.8115 79.797,115.5921 79.8,116.5575 L79.8,116.5575 Z" id="Shape" fill="#F3804B"></path>
            <path d="M76.1565,111.9672 L76.1565,111.9672 C75.3825,111.9777 74.772,112.6209 74.7822,113.3796 L74.8392,117.5595 C74.8497,118.3338 75.4929,118.9443 76.2516,118.9341 L76.2516,118.9341 C77.0256,118.9236 77.6361,118.2804 77.6259,117.5217 L77.5689,113.3415 C77.5584,112.5675 76.9308,111.9567 76.1565,111.9672 L76.1565,111.9672 Z" id="Shape" fill="#F1D4AF"></path>
            <path d="M72.6159,111.2151 L79.6602,111.1194 L79.7079,114.6336 C79.7346,116.5845 78.1767,118.1694 76.2414,118.1958 L76.2414,118.1958 C74.2908,118.2225 72.7056,116.6646 72.6792,114.7293 L72.6312,111.2151 L72.6159,111.2151 Z" id="Shape" fill="#F1D4AF"></path>
            <path d="M77.6391,112.7988 C77.9487,112.7943 78.2004,113.0853 78.2055,113.4567 C78.2103,113.8284 77.9667,114.126 77.6571,114.1302 C77.3475,114.1344 77.0958,113.8434 77.0907,113.472 C77.0856,113.1003 77.3292,112.803 77.6391,112.7988 L77.6391,112.7988 Z" id="Shape" fill="#252728"></path>
            <path d="M74.8677,112.8363 C75.1773,112.8321 75.429,113.1231 75.4341,113.4945 C75.4392,113.8662 75.1956,114.1635 74.8857,114.1677 C74.5761,114.1722 74.3244,113.8812 74.3193,113.5098 C74.3298,113.1378 74.5734,112.8405 74.8677,112.8363 L74.8677,112.8363 Z" id="Shape" fill="#252728"></path>
            <path d="M74.8926,115.7937 C74.8983,116.2116 75.5067,116.544 76.2651,116.5338 C77.0238,116.5233 77.6229,116.1744 77.6172,115.7565 L74.8926,115.7937 L74.8926,115.7937 Z" id="Shape" fill="#252728"></path>
            <path d="M75.4362,114.7953 C75.4398,115.0428 75.783,115.2396 76.2165,115.2336 C76.6347,115.2279 76.9878,115.0218 76.9845,114.774 L75.4362,114.7953 L75.4362,114.7953 Z" id="Shape" fill="#E19407"></path>
            <path d="M81.1815,114.4287 L81.0006,111.1857 C80.8428,108.3588 78.4767,106.2123 75.7455,106.365 C72.9774,106.5195 70.8789,108.9405 71.0352,111.7419 L71.2155,114.9723 L70.1274,116.2611 C70.4622,116.5083 70.8528,116.6511 71.2383,116.7054 L71.2995,117.8034 C71.7672,117.7773 72.1782,117.6276 72.5469,117.3792 C72.7719,117.873 73.284,118.1988 73.8375,118.1679 L75.1785,118.0932 C73.6749,117.4683 72.7656,115.5441 72.6789,113.9919 L72.4971,110.7363 C72.5766,112.1622 73.7616,113.2734 75.1767,113.1942 L79.704,112.9416 L79.74,113.5851 C79.8264,115.1373 79.1613,117.1494 77.7123,117.939 L78.9423,117.8703 C79.5084,117.8388 79.9683,117.4587 80.1372,116.943 C80.5065,117.15 80.9565,117.2517 81.4239,117.2256 L81.3642,116.1528 C81.7413,116.0559 82.1142,115.8831 82.4187,115.5876 L81.1815,114.4287 L81.1815,114.4287 Z" id="Shape" fill="#F3804B"></path>
        </g>
    </g>
</svg>