<?xml version="1.0" encoding="UTF-8"?>
<!DOCTYPE svg PUBLIC "-//W3C//DTD SVG 1.1//EN" "http://www.w3.org/Graphics/SVG/1.1/DTD/svg11.dtd">
<svg version="1.1" xmlns="http://www.w3.org/2000/svg" xmlns:xlink="http://www.w3.org/1999/xlink" x="0" y="0" width="1000" height="1000" viewBox="0, 0, 1000, 1000">
  <g id="Background">
    <rect x="0" y="0" width="1000" height="1000" fill="#FFFFFF"/>
  </g>
  <g id="widget">
    <path d="M500,873.995 C226.697,873.995 5.14,706.552 5.14,500 C5.14,293.448 226.697,126.005 500,126.005 C773.303,126.005 994.86,293.448 994.86,500 C994.86,706.552 773.303,873.995 500,873.995 z" fill="#ECE5CE"/>
    <path d="M499.37,853.904 C240.75,853.442 31.379,694.622 31.726,499.167 C32.073,303.711 242.01,145.638 500.63,146.096 C759.25,146.558 968.62,305.378 968.273,500.833 C967.927,696.289 757.99,854.362 499.37,853.904 z" fill="#F1D4AF" fill-opacity="0.427"/>
    <path d="M499.37,853.904 C240.75,853.442 31.379,694.622 31.726,499.167 C32.073,303.711 242.01,145.638 500.63,146.096 C759.25,146.558 968.62,305.378 968.273,500.833 C967.927,696.289 757.99,854.362 499.37,853.904 z" fill="#E08E79" fill-opacity="0.42"/>
    <path d="M489.691,546.164 L430.533,435.944 C424.307,424.424 412.475,417.574 399.709,417.574 L313.153,417.574 C299.765,417.574 287.622,425.047 281.706,436.878 L226.908,546.164 L260.845,546.164 L300.387,472.373 C303.19,467.08 311.285,468.948 311.285,475.175 L311.285,529.973 L401.266,529.973 L401.266,476.109 C401.266,469.882 409.361,468.014 412.163,473.307 L451.394,546.475 L489.691,546.475 z" fill="#C5E0DC"/>
    <path d="M492.182,554.57 L461.046,554.57 C460.112,560.486 461.046,567.336 464.16,574.497 C470.076,588.819 481.907,597.537 490.625,593.801 C499.343,590.065 501.834,575.742 495.607,561.42 C494.672,558.929 493.427,556.75 492.182,554.57 z" fill="#C5E0DC"/>
    <path d="M224.728,554.57 L255.864,554.57 C256.798,560.486 255.864,567.336 252.75,574.497 C246.835,588.819 235.003,597.537 226.285,593.801 C217.567,590.065 215.077,575.742 221.303,561.42 C222.238,558.929 223.483,556.75 224.728,554.57 z" fill="#C5E0DC"/>
    <path d="M489.691,546.164 L430.533,435.944 C424.307,424.424 412.475,417.574 399.709,417.574 L313.153,417.574 C299.765,417.574 287.622,425.047 281.706,436.878 L226.908,546.164 L260.845,546.164 L300.387,472.373 C303.19,467.08 311.285,468.948 311.285,475.175 L311.285,529.973 L401.266,529.973 L401.266,476.109 C401.266,469.882 409.361,468.014 412.163,473.307 L451.394,546.475 L489.691,546.475 z" fill="#F1D4AF" fill-opacity="0.51"/>
    <path d="M492.182,554.57 L461.046,554.57 C460.112,560.486 461.046,567.336 464.16,574.497 C470.076,588.819 481.907,597.537 490.625,593.801 C499.343,590.065 501.834,575.742 495.607,561.42 C494.672,558.929 493.427,556.75 492.182,554.57 z" fill="#F1D4AF" fill-opacity="0.51"/>
    <path d="M224.728,554.57 L255.864,554.57 C256.798,560.486 255.864,567.336 252.75,574.497 C246.835,588.819 235.003,597.537 226.285,593.801 C217.567,590.065 215.077,575.742 221.303,561.42 C222.238,558.929 223.483,556.75 224.728,554.57 z" fill="#F1D4AF" fill-opacity="0.51"/>
    <path d="M397.3,377.399 C397.3,362.03 384.886,349.616 369.516,349.616 C354.147,349.616 341.733,362.03 341.733,377.399 L341.733,388.409 C341.733,403.779 354.147,416.193 369.516,416.193 C384.886,416.193 397.3,403.779 397.3,388.409 L397.3,377.399 z" fill="#FFA539"/>
    <path d="M356.081,348.833 L356.081,348.833 C346.849,348.833 339.463,356.403 339.463,365.451 L339.463,415.306 C339.463,424.538 347.034,431.924 356.081,431.924 L356.081,431.924 C365.314,431.924 372.7,424.353 372.7,415.306 L372.7,365.451 C372.7,356.219 365.314,348.833 356.081,348.833 z" fill="#E19407"/>
    <path d="M405.374,383.696 L304.482,382.489 L305.054,334.719 C305.367,308.53 328.198,287.429 356.169,287.764 L356.169,287.764 C384.139,288.098 406.459,309.74 406.146,335.929 L405.574,383.699 z" fill="#6D4D41"/>
    <path d="M313.981,333.137 L397.996,333.137 L397.996,375.052 C397.996,398.318 379.162,416.968 356.081,416.968 L356.081,416.968 C332.816,416.968 314.166,398.134 314.166,375.052 L314.166,333.137 z" fill="#FAC11D"/>
    <path d="M373.623,358.988 C377.316,358.988 380.27,362.497 380.27,366.928 C380.27,371.36 377.316,374.868 373.623,374.868 C369.93,374.868 366.976,371.36 366.976,366.928 C366.976,362.496 369.93,358.988 373.623,358.988 z" fill="#252728"/>
    <path d="M340.571,358.988 C344.264,358.988 347.218,362.497 347.218,366.928 C347.218,371.36 344.264,374.868 340.571,374.868 C336.878,374.868 333.924,371.36 333.924,366.928 C334.108,362.496 337.063,358.988 340.571,358.988 z" fill="#252728"/>
    <path d="M302.718,332.399 C313.428,350.864 337.801,356.772 357.005,345.509 C376.208,334.43 383.225,310.426 372.515,291.961 L302.718,332.399 z" fill="#FFE876"/>
    <path d="M371.193,290.699 C358.562,299.968 357.105,319.237 367.825,333.903 C378.545,348.569 397.469,352.744 410.099,343.475 L371.193,290.699 z" fill="#6D4D41"/>
    <path d="M340.386,394.256 C340.386,399.242 347.588,403.304 356.635,403.304 C365.683,403.304 372.884,399.242 372.884,394.256 L340.386,394.256 z" fill="#252728"/>
    <path d="M347.034,382.438 C347.034,385.393 351.096,387.793 356.266,387.793 C361.251,387.793 365.499,385.393 365.499,382.438 L347.034,382.438 z" fill="#E19407"/>
    <path d="M402.047,621.228 L310.059,621.608 L309.679,529.785 L401.667,529.405 L402.047,621.228 z" fill="#00DFFE"/>
    <path d="M129.34,712.24 L128.714,560.618 L870.66,557.553 L871.286,709.174 L129.34,712.24 L129.34,712.24 z" fill="#016563"/>
    <path d="M725.162,467.044 L765.79,464.905 L755.15,422.985 L688.07,426.518 L682.468,465.328 L628.76,465.328 L564.492,557.553 L725.162,557.553 L725.162,467.044 z" fill="#FCC329"/>
    <path d="M748.831,423.239 L744.071,423.239 L742.394,465.075 L669.388,465.075 L605.12,557.299 L765.79,557.299 L765.79,465.075 L765.79,423.239 L748.831,423.239 z" fill="#FFD163"/>
    <path d="M623.092,487.632 L616.834,497.468 L612.544,493.353 L617.547,485.489 z" fill="#000000"/>
    <path d="M631.555,487.833 L625.298,497.668 L621.007,493.553 L626.01,485.69 z" fill="#000000"/>
    <path d="M640.3,487.723 L634.043,497.558 L629.753,493.443 L634.756,485.58 z" fill="#000000"/>
    <path d="M649.504,487.889 L643.246,497.724 L638.956,493.609 L643.959,485.746 z" fill="#000000"/>
    <path d="M600.891,518.543 L594.184,528.077 L590.089,523.768 L595.451,516.145 z" fill="#000000"/>
    <path d="M609.335,519.136 L602.628,528.67 L598.533,524.361 L603.896,516.738 z" fill="#000000"/>
    <path d="M618.076,519.432 L611.369,528.966 L607.274,524.657 L612.637,517.034 z" fill="#000000"/>
    <path d="M627.262,520.025 L620.555,529.559 L616.46,525.249 L621.823,517.627 z" fill="#000000"/>
    <path d="M611.854,502.839 L605.147,512.373 L601.052,508.064 L606.415,500.441 z" fill="#000000"/>
    <path d="M620.299,503.431 L613.591,512.966 L609.497,508.656 L614.859,501.033 z" fill="#000000"/>
    <path d="M629.04,503.728 L622.333,513.262 L618.238,508.953 L623.6,501.33 z" fill="#000000"/>
    <path d="M638.225,504.32 L631.518,513.854 L627.423,509.545 L632.786,501.922 z" fill="#000000"/>
    <path d="M624.519,477.237 L624.519,474.66 L657.387,474.66 L657.387,477.237 L624.519,477.237 z" fill="#8A8A8A"/>
    <path d="M624.519,549.113 L624.519,549.113 L608.124,549.113 L607.658,549.07 L614.272,537.349 L614.272,537.339 L598.907,537.339 L598.92,537.135 L598.806,537.339 L598.799,537.339 L598.799,537.349 L592.186,549.07 L592.652,549.113 L624.519,549.113 z" fill="#4D4D4D"/>
    <path d="M574.471,549.165 L574.471,537.187 L601.897,537.187 L601.897,549.165 L574.471,549.165 L574.471,549.165 z" fill="#8A8A8A"/>
    <path d="M693.074,458.767 L693.074,433.894 L734.514,433.894 L734.514,458.767 L693.074,458.767 L693.074,458.767 z" fill="#8A8A8A"/>
    <path d="M424.554,256.849 C424.554,244.906 415.796,235.749 405.577,230.44 C402.259,228.715 398.278,227.255 393.633,225.928 C389.519,224.867 385.007,222.08 385.007,217.302 C385.007,211.197 391.643,208.543 396.951,208.543 C401.33,208.543 407.302,210.003 412.61,212.524 C413.672,213.055 414.734,213.321 415.796,213.321 C420.042,213.321 423.36,210.003 423.36,205.889 C423.36,203.102 421.768,200.448 419.246,199.121 C410.885,195.139 402.79,193.679 396.951,193.679 L396.685,193.679 C383.149,193.679 370.143,202.704 370.011,217.302 C370.011,229.113 378.902,237.341 389.784,240.394 C393.5,241.322 396.951,242.65 399.738,244.242 C404.383,246.764 409.691,251.143 409.691,256.849 C409.691,263.618 403.055,266.935 397.083,266.935 C392.571,266.935 387.263,265.21 381.955,261.892 C380.76,261.229 379.433,260.831 378.106,260.831 C375.585,260.831 373.063,262.158 371.736,264.414 C370.94,265.608 370.674,266.935 370.674,268.262 C370.674,270.784 371.868,273.306 374.257,274.632 C382.087,279.41 389.917,281.799 397.482,281.799 C411.549,281.799 424.554,271.845 424.554,256.849 z" fill="#92392D"/>
    <path d="M488.852,274.367 L488.852,248.622 C488.852,232.564 478.102,223.008 460.054,223.008 C452.357,223.008 442.536,224.867 435.37,230.307 C433.645,231.634 432.716,233.758 432.716,235.749 C432.716,237.208 433.114,238.668 434.043,239.995 C435.37,241.721 437.493,242.782 439.617,242.782 C441.076,242.782 442.536,242.251 443.731,241.322 C447.314,238.668 453.418,236.279 460.054,236.279 C467.618,236.279 471.467,238.403 473.325,241.322 C442.403,243.048 429,254.328 429.132,266.272 C429.132,273.969 434.441,281.799 448.508,281.799 C457.134,281.799 466.955,278.746 475.05,273.306 L475.05,274.367 C475.05,278.083 478.102,281.268 481.951,281.268 C485.8,281.268 488.852,278.083 488.852,274.367 z M475.05,258.442 C465.495,264.945 457.798,268.263 449.304,268.263 C445.721,268.263 443.863,267.068 443.863,265.343 C443.863,257.513 470.007,253.93 475.05,253.93 z" fill="#92392D"/>
    <path d="M512.408,274.234 L512.408,201.244 C512.408,197.396 509.356,194.21 505.507,194.21 C501.659,194.21 498.607,197.396 498.607,201.244 L498.607,274.234 C498.607,277.95 501.659,281.135 505.507,281.135 C509.356,281.135 512.408,277.95 512.408,274.234 z" fill="#92392D"/>
    <path d="M583.541,237.341 C583.541,227.388 573.853,223.141 565.227,223.141 C545.718,223.141 519.442,236.279 519.442,258.575 C519.442,273.571 531.253,281.799 545.453,281.799 C554.61,281.799 565.094,279.145 576.64,273.04 C578.896,271.845 580.223,269.457 580.223,266.935 C580.223,262.954 577.038,260.035 573.322,260.035 C572.261,260.035 571.199,260.3 570.137,260.831 C559.918,266.139 551.956,268.793 546.117,268.793 C541.207,268.793 535.633,267.201 533.775,262.158 C548.24,261.892 583.541,258.177 583.541,237.341 z M568.677,238.137 C568.677,243.711 549.833,249.683 536.164,250.347 C541.604,241.721 554.875,236.412 564.829,236.412 L565.094,236.412 C567.483,236.412 568.677,237.076 568.677,238.137 z" fill="#92392D"/>
    <path d="M629.989,264.547 C629.989,254.328 622.956,247.427 609.021,243.977 C606.765,243.313 603.049,242.119 603.049,239.597 C603.049,237.739 604.907,236.279 608.623,236.279 C611.277,236.279 614.33,237.474 617.647,239.332 C618.709,239.863 619.903,240.128 620.965,240.128 C623.487,240.128 625.875,238.934 627.07,236.545 C627.601,235.483 627.999,234.421 627.999,233.227 C627.999,230.838 626.671,228.45 624.415,227.255 C619.24,224.336 614.595,223.141 607.561,223.141 C597.741,223.141 589.247,228.98 589.247,239.597 C589.247,248.223 595.352,254.726 605.571,257.38 C616.055,260.035 616.055,263.352 616.055,264.547 C616.055,266.935 613.931,268.793 610.348,268.793 C606.5,268.793 601.589,266.67 599.731,264.679 C598.404,263.219 596.546,262.556 594.821,262.556 C592.963,262.556 591.238,263.219 589.911,264.547 C588.584,265.874 587.788,267.599 587.788,269.457 C587.788,271.182 588.451,272.907 589.778,274.234 C594.29,278.879 602.651,281.799 610.348,281.799 C621.628,281.799 629.989,274.5 629.989,264.547 z" fill="#92392D"/>
    <path d="M359.378,600.396 C359.378,596.278 356.056,592.956 351.938,592.956 L317.795,592.956 C313.677,592.956 310.356,596.278 310.356,600.396 L310.356,671.604 C310.356,675.722 313.677,679.043 317.795,679.043 C321.914,679.043 325.235,675.722 325.235,671.604 L325.235,637.195 L347.819,637.195 C351.938,637.195 355.259,633.874 355.259,629.756 C355.259,625.638 351.938,622.316 347.819,622.316 L325.235,622.316 L325.235,607.969 L351.938,607.969 C356.056,607.969 359.378,604.514 359.378,600.396 z" fill="#F1D4AF"/>
    <path d="M424.54,672.268 L424.54,646.495 C424.54,630.42 413.779,620.855 395.712,620.855 C388.006,620.855 378.176,622.715 371.001,628.162 C369.275,629.49 368.344,631.616 368.344,633.609 C368.344,635.07 368.743,636.531 369.673,637.86 C371.001,639.587 373.127,640.65 375.253,640.65 C376.714,640.65 378.176,640.118 379.371,639.188 C382.958,636.531 389.069,634.14 395.712,634.14 C403.284,634.14 407.137,636.266 408.997,639.188 C378.042,640.915 364.625,652.208 364.758,664.164 C364.758,671.87 370.072,679.708 384.154,679.708 C392.789,679.708 402.62,676.652 410.724,671.205 L410.724,672.268 C410.724,675.988 413.779,679.177 417.632,679.177 C421.485,679.177 424.54,675.988 424.54,672.268 z M410.724,656.326 C401.159,662.836 393.453,666.157 384.951,666.157 C381.364,666.157 379.504,664.961 379.504,663.234 C379.504,655.396 405.676,651.809 410.724,651.809 z" fill="#F1D4AF"/>
    <path d="M477.747,632.147 C477.747,630.553 477.083,628.959 476.02,627.763 C472.035,623.379 466.987,620.855 461.54,620.855 C455.429,620.855 450.38,624.442 448.122,628.294 C447.989,624.442 444.933,621.386 441.213,621.386 C437.361,621.386 434.172,624.442 434.172,628.294 L434.172,672.268 C434.172,676.121 437.361,679.176 441.213,679.176 C444.933,679.176 448.122,676.121 448.122,672.268 L448.122,651.411 C449.583,641.58 455.429,634.406 460.211,634.406 C462.735,634.406 464.33,635.469 465.525,636.93 C466.987,638.391 468.846,639.188 470.839,639.188 C474.692,639.188 477.747,636 477.747,632.147 z" fill="#F1D4AF"/>
    <path d="M568.351,671.737 L568.351,599.068 C568.351,594.949 565.163,591.628 560.912,591.628 C558.122,591.628 556.129,592.824 554.801,594.949 L526.902,636.133 L499.004,594.949 C497.542,592.824 495.284,591.628 492.892,591.628 C488.641,591.628 485.32,594.949 485.32,599.068 L485.32,671.737 C485.32,675.855 488.641,679.177 492.76,679.177 C496.878,679.177 500.199,675.855 500.199,671.737 L500.199,622.582 L520.658,653.536 C522.253,655.928 524.511,657.123 526.769,657.123 C529.161,657.123 531.419,655.928 533.013,653.536 L553.472,622.582 L553.472,671.737 C553.472,675.855 556.794,679.177 560.912,679.177 C565.03,679.177 568.351,675.855 568.351,671.737 z" fill="#F1D4AF"/>
    <path d="M636.437,672.268 L636.437,646.495 C636.437,630.42 625.676,620.855 607.609,620.855 C599.903,620.855 590.072,622.715 582.898,628.162 C581.171,629.49 580.241,631.616 580.241,633.609 C580.241,635.07 580.64,636.531 581.57,637.86 C582.898,639.587 585.024,640.65 587.15,640.65 C588.611,640.65 590.072,640.118 591.268,639.188 C594.855,636.531 600.966,634.14 607.609,634.14 C615.181,634.14 619.034,636.266 620.894,639.188 C589.939,640.915 576.521,652.208 576.654,664.164 C576.654,671.87 581.968,679.708 596.051,679.708 C604.686,679.708 614.517,676.652 622.62,671.205 L622.62,672.268 C622.62,675.988 625.676,679.177 629.529,679.177 C633.382,679.177 636.437,675.988 636.437,672.268 z M622.62,656.326 C613.055,662.836 605.35,666.157 596.848,666.157 C593.261,666.157 591.401,664.961 591.401,663.234 C591.401,655.396 617.572,651.809 622.62,651.809 z" fill="#F1D4AF"/>
    <path d="M689.644,632.147 C689.644,630.553 688.98,628.959 687.917,627.763 C683.931,623.379 678.883,620.855 673.436,620.855 C667.325,620.855 662.277,624.442 660.019,628.294 C659.885,624.442 656.83,621.386 653.11,621.386 C649.258,621.386 646.069,624.442 646.069,628.294 L646.069,672.268 C646.069,676.121 649.258,679.176 653.11,679.176 C656.83,679.176 660.019,676.121 660.019,672.268 L660.019,651.411 C661.48,641.58 667.325,634.406 672.108,634.406 C674.632,634.406 676.226,635.469 677.422,636.93 C678.883,638.391 680.743,639.188 682.736,639.188 C686.589,639.188 689.644,636 689.644,632.147 z" fill="#F1D4AF"/>
  </g>
</svg>
