<?xml version="1.0" encoding="UTF-8"?>
<!DOCTYPE svg PUBLIC "-//W3C//DTD SVG 1.1//EN" "http://www.w3.org/Graphics/SVG/1.1/DTD/svg11.dtd">
<svg version="1.1" xmlns="http://www.w3.org/2000/svg" xmlns:xlink="http://www.w3.org/1999/xlink" x="0" y="0" width="1000" height="1000" viewBox="0, 0, 1000, 1000">
  <g id="Background">
    <rect x="0" y="0" width="1000" height="1000" fill="#FFFFFF"/>
  </g>
  <g id="widget">
    <path d="M500,872.668 C227.667,872.668 6.898,705.819 6.898,500 C6.898,294.181 227.667,127.332 500,127.332 C772.333,127.332 993.102,294.181 993.102,500 C993.102,705.819 772.333,872.668 500,872.668 z" fill="#ECE5CE"/>
    <path d="M499.372,852.647 C241.67,852.19 33.04,693.931 33.387,499.17 C33.734,304.408 242.925,146.895 500.628,147.353 C758.331,147.81 966.96,306.069 966.613,500.83 C966.266,695.592 757.075,853.104 499.372,852.647 z" fill="#F1D4AF" fill-opacity="0.427"/>
    <path d="M499.372,852.647 C241.67,852.19 33.04,693.931 33.387,499.17 C33.734,304.408 242.925,146.895 500.628,147.353 C758.331,147.81 966.96,306.069 966.613,500.83 C966.266,695.592 757.075,853.104 499.372,852.647 z" fill="#016563" fill-opacity="0.42"/>
    <path d="M694.193,442.479 L306.291,442.479 L345.17,364.899 L655.313,364.899 z" fill="#705845"/>
    <path d="M305.807,453.44 L305.807,442.479 L693.706,442.479 L693.706,453.44 L305.807,453.44 z" fill="#023649"/>
    <path d="M494.858,692.386 L463.956,634.81 C460.703,628.792 454.523,625.214 447.855,625.214 L402.64,625.214 C395.646,625.214 389.303,629.118 386.213,635.298 L357.588,692.386 L375.316,692.386 L395.972,653.839 C397.436,651.074 401.664,652.05 401.664,655.303 L401.664,683.928 L448.668,683.928 L448.668,655.791 C448.668,652.538 452.896,651.562 454.36,654.327 L474.853,692.548 L494.858,692.548 z" fill="#C5E0DC"/>
    <path d="M496.16,696.777 L479.895,696.777 C479.407,699.867 479.895,703.445 481.522,707.186 C484.612,714.667 490.792,719.221 495.346,717.27 C499.9,715.318 501.201,707.837 497.949,700.355 C497.461,699.054 496.81,697.916 496.16,696.777 z" fill="#C5E0DC"/>
    <path d="M356.45,696.777 L372.714,696.777 C373.202,699.867 372.714,703.445 371.087,707.186 C367.997,714.667 361.817,719.221 357.263,717.27 C352.709,715.318 351.408,707.837 354.66,700.355 C355.148,699.054 355.799,697.916 356.45,696.777 z" fill="#C5E0DC"/>
    <path d="M494.858,692.386 L463.956,634.81 C460.703,628.792 454.523,625.214 447.855,625.214 L402.64,625.214 C395.646,625.214 389.303,629.118 386.213,635.298 L357.588,692.386 L375.316,692.386 L395.972,653.839 C397.436,651.074 401.664,652.05 401.664,655.303 L401.664,683.928 L448.668,683.928 L448.668,655.791 C448.668,652.538 452.896,651.562 454.36,654.327 L474.853,692.548 L494.858,692.548 z" fill="#F1D4AF" fill-opacity="0.51"/>
    <path d="M496.16,696.777 L479.895,696.777 C479.407,699.867 479.895,703.445 481.522,707.186 C484.612,714.667 490.792,719.221 495.346,717.27 C499.9,715.318 501.201,707.837 497.949,700.355 C497.461,699.054 496.81,697.916 496.16,696.777 z" fill="#F1D4AF" fill-opacity="0.51"/>
    <path d="M356.45,696.777 L372.714,696.777 C373.202,699.867 372.714,703.445 371.087,707.186 C367.997,714.667 361.817,719.221 357.263,717.27 C352.709,715.318 351.408,707.837 354.66,700.355 C355.148,699.054 355.799,697.916 356.45,696.777 z" fill="#F1D4AF" fill-opacity="0.51"/>
    <path d="M446.596,604.228 C446.596,596.2 440.111,589.715 432.083,589.715 C424.054,589.715 417.569,596.2 417.569,604.228 L417.569,609.979 C417.569,618.008 424.054,624.492 432.083,624.492 C440.111,624.492 446.596,618.008 446.596,609.979 L446.596,604.228 z" fill="#FFA539"/>
    <path d="M425.065,589.305 L425.065,589.305 C420.242,589.305 416.384,593.26 416.384,597.986 L416.384,624.029 C416.384,628.852 420.338,632.71 425.065,632.71 L425.065,632.71 C429.887,632.71 433.746,628.755 433.746,624.029 L433.746,597.986 C433.746,593.164 429.887,589.305 425.065,589.305 z" fill="#E19407"/>
    <path d="M450.814,607.517 L398.111,606.887 L398.409,581.933 C398.573,568.253 410.499,557.23 425.11,557.405 L425.11,557.405 C439.721,557.58 451.381,568.884 451.217,582.565 L450.918,607.519 z" fill="#6D4D41"/>
    <path d="M403.073,581.107 L446.96,581.107 L446.96,603.002 C446.96,615.155 437.122,624.897 425.065,624.897 L425.065,624.897 C412.911,624.897 403.169,615.059 403.169,603.002 L403.169,581.107 z" fill="#FAC11D"/>
    <path d="M434.228,594.61 C436.157,594.61 437.7,596.443 437.7,598.758 C437.7,601.073 436.157,602.906 434.228,602.906 C432.299,602.906 430.756,601.073 430.756,598.758 C430.756,596.443 432.299,594.61 434.228,594.61 z" fill="#252728"/>
    <path d="M416.963,594.61 C418.891,594.61 420.435,596.443 420.435,598.758 C420.435,601.073 418.891,602.906 416.963,602.906 C415.033,602.906 413.49,601.073 413.49,598.758 C413.587,596.443 415.13,594.61 416.963,594.61 z" fill="#252728"/>
    <path d="M397.189,580.721 C402.784,590.367 415.516,593.453 425.547,587.569 C435.578,581.782 439.244,569.243 433.649,559.597 L397.189,580.721 z" fill="#FFE876"/>
    <path d="M432.959,558.938 C426.361,563.78 425.599,573.846 431.199,581.507 C436.799,589.168 446.684,591.349 453.282,586.507 L432.959,558.938 z" fill="#6D4D41"/>
    <path d="M416.866,613.033 C416.866,615.638 420.628,617.759 425.354,617.759 C430.08,617.759 433.842,615.638 433.842,613.033 L416.866,613.033 z" fill="#252728"/>
    <path d="M420.338,606.86 C420.338,608.404 422.461,609.657 425.161,609.657 C427.765,609.657 429.984,608.404 429.984,606.86 L420.338,606.86 z" fill="#E19407"/>
    <path d="M449.076,731.597 L401.024,731.795 L400.826,683.83 L448.878,683.631 L449.076,731.597 z" fill="#00DFFE"/>
    <path d="M694.193,717.433 L678.48,717.433 L678.48,442.326 L694.193,442.326 L694.193,717.433 z" fill="#023649"/>
    <path d="M322.007,717.433 L306.294,717.433 L306.294,442.326 L322.007,442.326 L322.007,717.433 z" fill="#023649"/>
    <path d="M616.613,453.44 L616.613,492.23 C616.613,513.667 633.967,531.02 655.403,531.02 C676.839,531.02 694.193,513.667 694.193,492.23 L694.193,453.44 L616.613,453.44 L539.033,453.44 L539.033,492.23 C539.033,513.667 556.387,531.02 577.823,531.02 C599.26,531.02 616.613,513.667 616.613,492.23 L616.613,453.44 z M461.454,453.44 L461.454,492.23 C461.454,513.667 478.807,531.02 500.244,531.02 C521.68,531.02 539.033,513.667 539.033,492.23 L539.033,453.44 L461.454,453.44 L383.874,453.44 L383.874,492.23 C383.874,513.667 401.227,531.02 422.664,531.02 C444.1,531.02 461.454,513.667 461.454,492.23 L461.454,453.44 L461.454,453.44 z M306.294,453.44 L306.294,453.44 L306.294,492.23 C306.294,513.667 323.647,531.02 345.084,531.02 C366.521,531.02 383.874,513.667 383.874,492.23 L383.874,453.44 L306.294,453.44 z" fill="#E8DDCB"/>
    <path d="M613.626,453.44 L613.626,481.722 C613.626,497.351 630.533,510.003 651.419,510.003 C672.305,510.003 689.213,497.351 689.213,481.722 L689.213,453.44 L613.626,453.44 L538.039,453.44 L538.039,481.722 C538.039,497.351 554.946,510.003 575.832,510.003 C596.718,510.003 613.626,497.351 613.626,481.722 L613.626,453.44 z M462.452,453.44 L462.452,481.722 C462.452,497.351 479.359,510.003 500.245,510.003 C521.131,510.003 538.039,497.351 538.039,481.722 L538.039,453.44 L462.452,453.44 L386.865,453.44 L386.865,481.722 C386.865,497.351 403.772,510.003 424.658,510.003 C445.544,510.003 462.452,497.351 462.452,481.722 L462.452,453.44 L462.452,453.44 z M311.278,453.44 L311.278,453.44 L311.278,481.722 C311.278,497.351 328.185,510.003 349.071,510.003 C369.957,510.003 386.865,497.351 386.865,481.722 L386.865,453.44 L311.278,453.44 z" fill="#9D8555"/>
    <path d="M306.622,779.139 L306.294,699.936 L693.866,698.335 L694.193,777.538 L306.622,779.139 L306.622,779.139 z" fill="#016563"/>
    <path d="M617.862,651.056 L639.085,649.939 L633.527,628.041 L598.486,629.886 L595.56,650.159 L567.504,650.159 L533.932,698.335 L617.862,698.335 L617.862,651.056 z" fill="#FCC329"/>
    <path d="M630.226,628.173 L627.739,628.173 L626.863,650.027 L588.727,650.027 L555.155,698.203 L639.085,698.203 L639.085,650.027 L639.085,628.173 L630.226,628.173 z" fill="#FFD163"/>
    <path d="M564.543,661.81 L561.275,666.948 L559.033,664.799 L561.647,660.691 z" fill="#000000"/>
    <path d="M568.964,661.915 L565.696,667.053 L563.454,664.903 L566.068,660.796 z" fill="#000000"/>
    <path d="M573.532,661.858 L570.264,666.995 L568.022,664.846 L570.636,660.739 z" fill="#000000"/>
    <path d="M578.34,661.945 L575.071,667.082 L572.83,664.932 L575.443,660.825 z" fill="#000000"/>
    <path d="M552.946,677.957 L549.442,682.938 L547.303,680.687 L550.105,676.705 z" fill="#000000"/>
    <path d="M557.357,678.267 L553.854,683.247 L551.715,680.996 L554.516,677.014 z" fill="#000000"/>
    <path d="M561.923,678.422 L558.42,683.402 L556.281,681.151 L559.082,677.169 z" fill="#000000"/>
    <path d="M566.722,678.731 L563.218,683.712 L561.079,681.461 L563.88,677.479 z" fill="#000000"/>
    <path d="M558.673,669.754 L555.169,674.734 L553.03,672.483 L555.832,668.501 z" fill="#000000"/>
    <path d="M563.084,670.064 L559.581,675.044 L557.442,672.793 L560.243,668.811 z" fill="#000000"/>
    <path d="M567.65,670.218 L564.147,675.199 L562.008,672.948 L564.809,668.966 z" fill="#000000"/>
    <path d="M572.448,670.528 L568.945,675.508 L566.806,673.257 L569.607,669.275 z" fill="#000000"/>
    <path d="M565.289,656.38 L565.289,655.034 L582.458,655.034 L582.458,656.38 L565.289,656.38 z" fill="#8A8A8A"/>
    <path d="M565.289,693.926 L565.289,693.926 L556.724,693.926 L556.481,693.904 L559.936,687.781 L559.936,687.776 L551.91,687.776 L551.917,687.669 L551.857,687.776 L551.854,687.776 L551.854,687.781 L548.399,693.904 L548.642,693.926 L565.289,693.926 z" fill="#4D4D4D"/>
    <path d="M539.145,693.953 L539.145,687.696 L553.472,687.696 L553.472,693.953 L539.145,693.953 L539.145,693.953 z" fill="#8A8A8A"/>
    <path d="M601.1,646.732 L601.1,633.739 L622.747,633.739 L622.747,646.732 L601.1,646.732 L601.1,646.732 z" fill="#8A8A8A"/>
    <path d="M383.299,233.87 C383.299,229.77 380.125,226.464 376.026,226.464 C373.117,226.464 370.34,228.051 369.15,230.96 L344.553,287.955 L319.957,230.96 C318.766,228.051 315.99,226.464 313.08,226.464 C309.113,226.464 305.807,229.77 305.807,233.87 C305.807,234.795 305.939,235.853 306.336,236.779 L337.412,308.717 C338.735,312.023 341.511,313.61 344.686,313.61 C347.727,313.61 350.372,311.891 351.694,308.717 L382.77,236.779 C383.167,235.853 383.299,234.795 383.299,233.87 z" fill="#92392D"/>
    <path d="M451.799,269.31 C451.799,259.392 442.145,255.16 433.55,255.16 C414.111,255.16 387.928,268.252 387.928,290.468 C387.928,305.411 399.697,313.61 413.846,313.61 C422.971,313.61 433.418,310.965 444.923,304.882 C447.17,303.692 448.493,301.311 448.493,298.799 C448.493,294.832 445.319,291.922 441.616,291.922 C440.559,291.922 439.501,292.187 438.443,292.716 C428.26,298.005 420.326,300.65 414.508,300.65 C409.615,300.65 404.061,299.063 402.209,294.038 C416.623,293.774 451.799,290.071 451.799,269.31 z M436.988,270.103 C436.988,275.657 418.21,281.608 404.59,282.269 C410.011,273.674 423.235,268.384 433.153,268.384 L433.418,268.384 C435.798,268.384 436.988,269.045 436.988,270.103 z" fill="#92392D"/>
    <path d="M512.497,306.204 L512.497,282.666 C512.497,265.475 503.769,255.16 488.958,255.16 C482.611,255.16 477.057,257.805 472.957,262.301 L472.957,262.036 C472.957,258.201 469.916,255.16 466.081,255.16 C462.246,255.16 459.204,258.201 459.204,262.036 L459.204,306.204 C459.204,309.907 462.246,313.081 466.081,313.081 C469.916,313.081 472.957,309.907 472.957,306.204 L472.957,280.947 C476.395,272.88 484.065,268.913 488.958,268.913 C491.867,268.913 498.744,268.913 498.744,282.666 L498.744,306.204 C498.744,309.907 501.785,313.081 505.62,313.081 C509.455,313.081 512.497,309.907 512.497,306.204 z" fill="#92392D"/>
    <path d="M580.268,306.072 L580.268,233.208 C580.268,229.373 577.227,226.332 573.392,226.332 C569.557,226.332 566.516,229.373 566.516,233.208 L566.516,255.821 C548.134,258.995 519.835,270.896 519.703,293.377 L519.703,293.774 C519.571,307.13 529.621,313.477 541.919,313.477 C548.531,313.477 556.862,311.626 566.516,305.94 C566.516,309.907 569.425,312.948 573.392,312.948 C577.227,312.948 580.268,309.775 580.268,306.072 z M566.516,290.865 C556.598,297.609 548.002,300.254 542.184,300.254 C537.82,300.254 533.324,298.799 533.456,293.641 C533.588,280.021 556.333,271.954 566.516,269.839 z" fill="#92392D"/>
    <path d="M643.611,276.847 C643.611,264.549 635.544,254.896 622.85,254.896 C604.469,254.896 587.41,273.938 587.542,291.922 C587.542,304.089 595.608,313.61 608.304,313.61 C626.685,313.61 643.611,294.7 643.611,276.847 z M629.858,276.715 C629.858,287.03 619.015,299.857 608.304,299.857 C603.146,299.857 601.295,296.286 601.295,291.658 C601.295,281.476 612.403,268.648 622.85,268.648 C627.742,268.648 629.858,272.087 629.858,276.715 z" fill="#92392D"/>
    <path d="M694.193,266.268 C694.193,264.681 693.532,263.094 692.474,261.904 C688.507,257.54 683.481,255.028 678.06,255.028 C671.977,255.028 666.952,258.598 664.703,262.433 C664.571,258.598 661.53,255.557 657.827,255.557 C653.992,255.557 650.819,258.598 650.819,262.433 L650.819,306.204 C650.819,310.039 653.992,313.081 657.827,313.081 C661.53,313.081 664.703,310.039 664.703,306.204 L664.703,285.443 C666.158,275.657 671.977,268.516 676.737,268.516 C679.25,268.516 680.837,269.574 682.027,271.029 C683.481,272.483 685.333,273.277 687.316,273.277 C691.151,273.277 694.193,270.103 694.193,266.268 z" fill="#92392D"/>
  </g>
</svg>
