<?xml version="1.0" encoding="UTF-8" standalone="no"?>
<svg width="288px" height="289px" viewBox="0 0 288 289" version="1.1" xmlns="http://www.w3.org/2000/svg" xmlns:xlink="http://www.w3.org/1999/xlink">
    <!-- Generator: Sketch 40 (33762) - http://www.bohemiancoding.com/sketch -->
    <title>vendor</title>
    <desc>Created with Sketch.</desc>
    <defs></defs>
    <g id="Page-1" stroke="none" stroke-width="1" fill="none" fill-rule="evenodd">
        <g id="Group">
            <g id="Background" fill="#FFFFFF">
                <rect id="Rectangle-path" x="0" y="0" width="288" height="288"></rect>
            </g>
            <g id="widget" transform="translate(1.728000, 36.576000)">
                <path d="M142.272,214.752384 C63.840096,214.752384 0.258624,166.699872 0.258624,107.424 C0.258624,48.148128 63.840096,0.095616 142.272,0.095616 C220.703904,0.095616 284.285376,48.148128 284.285376,107.424 C284.285376,166.699872 220.703904,214.752384 142.272,214.752384 L142.272,214.752384 Z" id="Shape" fill="#EFE1B3"></path>
                <path d="M142.091136,208.986336 C67.87296,208.85472 7.78752,163.276128 7.887456,107.18496 C7.987392,51.093504 68.2344,5.72976 142.452864,5.861664 C216.671328,5.99328 276.75648,51.571872 276.656544,107.66304 C276.556608,163.754496 216.3096,209.117952 142.091136,208.986336 L142.091136,208.986336 Z" id="Shape" fill-opacity="0.427" fill="#F1D4AF"></path>
                <path d="M142.091136,208.986336 C67.87296,208.85472 7.78752,163.276128 7.887456,107.18496 C7.987392,51.093504 68.2344,5.72976 142.452864,5.861664 C216.671328,5.99328 276.75648,51.571872 276.656544,107.66304 C276.556608,163.754496 216.3096,209.117952 142.091136,208.986336 L142.091136,208.986336 Z" id="Shape" fill-opacity="0.42" fill="#016563"></path>
                <polygon id="Shape" fill="#705845" points="198.199584 90.857952 86.483808 90.857952 97.68096 68.514912 187.002144 68.514912"></polygon>
                <polygon id="Shape" fill="#023649" points="86.344416 94.01472 86.344416 90.857952 198.059328 90.857952 198.059328 94.01472"></polygon>
                <path d="M140.791104,162.831168 L131.891328,146.24928 C130.954464,144.516096 129.174624,143.485632 127.25424,143.485632 L114.23232,143.485632 C112.218048,143.485632 110.391264,144.609984 109.501344,146.389824 L101.257344,162.831168 L106.363008,162.831168 L112.311936,151.729632 C112.733568,150.933312 113.951232,151.2144 113.951232,152.151264 L113.951232,160.395264 L127.488384,160.395264 L127.488384,152.291808 C127.488384,151.354944 128.706048,151.073856 129.12768,151.870176 L135.029664,162.877824 L140.791104,162.877824 L140.791104,162.831168 Z" id="Shape" fill="#C5E0DC"></path>
                <path d="M141.16608,164.095776 L136.48176,164.095776 C136.341216,164.985696 136.48176,166.01616 136.950336,167.093568 C137.840256,169.248096 139.620096,170.559648 140.931648,169.99776 C142.2432,169.435584 142.617888,167.281056 141.681312,165.12624 C141.540768,164.751552 141.35328,164.423808 141.16608,164.095776 L141.16608,164.095776 Z" id="Shape" fill="#C5E0DC"></path>
                <path d="M100.9296,164.095776 L105.613632,164.095776 C105.754176,164.985696 105.613632,166.01616 105.145056,167.093568 C104.255136,169.248096 102.475296,170.559648 101.163744,169.99776 C99.852192,169.435584 99.477504,167.281056 100.41408,165.12624 C100.554624,164.751552 100.742112,164.423808 100.9296,164.095776 L100.9296,164.095776 Z" id="Shape" fill="#C5E0DC"></path>
                <path d="M140.791104,162.831168 L131.891328,146.24928 C130.954464,144.516096 129.174624,143.485632 127.25424,143.485632 L114.23232,143.485632 C112.218048,143.485632 110.391264,144.609984 109.501344,146.389824 L101.257344,162.831168 L106.363008,162.831168 L112.311936,151.729632 C112.733568,150.933312 113.951232,151.2144 113.951232,152.151264 L113.951232,160.395264 L127.488384,160.395264 L127.488384,152.291808 C127.488384,151.354944 128.706048,151.073856 129.12768,151.870176 L135.029664,162.877824 L140.791104,162.877824 L140.791104,162.831168 Z" id="Shape" fill-opacity="0.51" fill="#F1D4AF"></path>
                <path d="M141.16608,164.095776 L136.48176,164.095776 C136.341216,164.985696 136.48176,166.01616 136.950336,167.093568 C137.840256,169.248096 139.620096,170.559648 140.931648,169.99776 C142.2432,169.435584 142.617888,167.281056 141.681312,165.12624 C141.540768,164.751552 141.35328,164.423808 141.16608,164.095776 L141.16608,164.095776 Z" id="Shape" fill-opacity="0.51" fill="#F1D4AF"></path>
                <path d="M100.9296,164.095776 L105.613632,164.095776 C105.754176,164.985696 105.613632,166.01616 105.145056,167.093568 C104.255136,169.248096 102.475296,170.559648 101.163744,169.99776 C99.852192,169.435584 99.477504,167.281056 100.41408,165.12624 C100.554624,164.751552 100.742112,164.423808 100.9296,164.095776 L100.9296,164.095776 Z" id="Shape" fill-opacity="0.51" fill="#F1D4AF"></path>
                <path d="M126.891648,137.441664 C126.891648,135.1296 125.023968,133.26192 122.711904,133.26192 C120.399552,133.26192 118.531872,135.1296 118.531872,137.441664 L118.531872,139.097952 C118.531872,141.410304 120.399552,143.277696 122.711904,143.277696 C125.023968,143.277696 126.891648,141.410304 126.891648,139.097952 L126.891648,137.441664 L126.891648,137.441664 Z" id="Shape" fill="#FFA539"></path>
                <path d="M120.69072,133.14384 L120.69072,133.14384 C119.301696,133.14384 118.190592,134.28288 118.190592,135.643968 L118.190592,143.144352 C118.190592,144.533376 119.329344,145.64448 120.69072,145.64448 L120.69072,145.64448 C122.079456,145.64448 123.190848,144.50544 123.190848,143.144352 L123.190848,135.643968 C123.190848,134.255232 122.079456,133.14384 120.69072,133.14384 L120.69072,133.14384 Z" id="Shape" fill="#E19407"></path>
                <path d="M128.106432,138.388896 L112.927968,138.207456 L113.013792,131.020704 C113.061024,127.080864 116.495712,123.90624 120.70368,123.95664 L120.70368,123.95664 C124.911648,124.00704 128.269728,127.262592 128.222496,131.20272 L128.136384,138.389472 L128.106432,138.388896 Z" id="Shape" fill="#6D4D41"></path>
                <path d="M114.357024,130.782816 L126.99648,130.782816 L126.99648,137.088576 C126.99648,140.58864 124.163136,143.394336 120.69072,143.394336 L120.69072,143.394336 C117.190368,143.394336 114.384672,140.560992 114.384672,137.088576 L114.384672,130.782816 L114.357024,130.782816 Z" id="Shape" fill="#FAC11D"></path>
                <path d="M123.329664,134.67168 C123.885216,134.67168 124.3296,135.199584 124.3296,135.866304 C124.3296,136.533024 123.885216,137.060928 123.329664,137.060928 C122.774112,137.060928 122.329728,136.533024 122.329728,135.866304 C122.329728,135.199584 122.774112,134.67168 123.329664,134.67168 L123.329664,134.67168 Z" id="Shape" fill="#252728"></path>
                <path d="M118.357344,134.67168 C118.912608,134.67168 119.35728,135.199584 119.35728,135.866304 C119.35728,136.533024 118.912608,137.060928 118.357344,137.060928 C117.801504,137.060928 117.35712,136.533024 117.35712,135.866304 C117.385056,135.199584 117.82944,134.67168 118.357344,134.67168 L118.357344,134.67168 Z" id="Shape" fill="#252728"></path>
                <path d="M112.662432,130.671648 C114.273792,133.449696 117.940608,134.338464 120.829536,132.643872 C123.718464,130.977216 124.774272,127.365984 123.162912,124.587936 L112.662432,130.671648 L112.662432,130.671648 Z" id="Shape" fill="#FFE876"></path>
                <path d="M122.964192,124.398144 C121.063968,125.79264 120.844512,128.691648 122.457312,130.898016 C124.070112,133.104384 126.916992,133.732512 128.817216,132.338016 L122.964192,124.398144 L122.964192,124.398144 Z" id="Shape" fill="#6D4D41"></path>
                <path d="M118.329408,139.977504 C118.329408,140.727744 119.412864,141.338592 120.773952,141.338592 C122.13504,141.338592 123.218496,140.727744 123.218496,139.977504 L118.329408,139.977504 L118.329408,139.977504 Z" id="Shape" fill="#252728"></path>
                <path d="M119.329344,138.19968 C119.329344,138.644352 119.940768,139.005216 120.718368,139.005216 C121.46832,139.005216 122.107392,138.644352 122.107392,138.19968 L119.329344,138.19968 L119.329344,138.19968 Z" id="Shape" fill="#E19407"></path>
                <polygon id="Shape" fill="#00DFFE" points="127.605888 174.123936 113.766912 174.18096 113.709888 160.36704 127.548864 160.309728"></polygon>
                <polygon id="Shape" fill="#023649" points="198.199584 170.044704 193.67424 170.044704 193.67424 90.813888 198.199584 90.813888"></polygon>
                <polygon id="Shape" fill="#023649" points="91.010016 170.044704 86.484672 170.044704 86.484672 90.813888 91.010016 90.813888"></polygon>
                <path d="M175.856544,94.01472 L175.856544,105.18624 C175.856544,111.360096 180.854496,116.35776 187.028064,116.35776 C193.201632,116.35776 198.199584,111.360096 198.199584,105.18624 L198.199584,94.01472 L175.856544,94.01472 L153.513504,94.01472 L153.513504,105.18624 C153.513504,111.360096 158.511456,116.35776 164.685024,116.35776 C170.85888,116.35776 175.856544,111.360096 175.856544,105.18624 L175.856544,94.01472 L175.856544,94.01472 Z M131.170752,94.01472 L131.170752,105.18624 C131.170752,111.360096 136.168416,116.35776 142.342272,116.35776 C148.51584,116.35776 153.513504,111.360096 153.513504,105.18624 L153.513504,94.01472 L131.170752,94.01472 L108.827712,94.01472 L108.827712,105.18624 C108.827712,111.360096 113.825376,116.35776 119.999232,116.35776 C126.1728,116.35776 131.170752,111.360096 131.170752,105.18624 L131.170752,94.01472 L131.170752,94.01472 L131.170752,94.01472 Z M86.484672,94.01472 L86.484672,94.01472 L86.484672,105.18624 C86.484672,111.360096 91.482336,116.35776 97.656192,116.35776 C103.830048,116.35776 108.827712,111.360096 108.827712,105.18624 L108.827712,94.01472 L86.484672,94.01472 L86.484672,94.01472 Z" id="Shape" fill="#E8DDCB"></path>
                <path d="M174.996288,94.01472 L174.996288,102.159936 C174.996288,106.661088 179.865504,110.304864 185.880672,110.304864 C191.89584,110.304864 196.765344,106.661088 196.765344,102.159936 L196.765344,94.01472 L174.996288,94.01472 L153.227232,94.01472 L153.227232,102.159936 C153.227232,106.661088 158.096448,110.304864 164.111616,110.304864 C170.126784,110.304864 174.996288,106.661088 174.996288,102.159936 L174.996288,94.01472 L174.996288,94.01472 Z M131.458176,94.01472 L131.458176,102.159936 C131.458176,106.661088 136.327392,110.304864 142.34256,110.304864 C148.357728,110.304864 153.227232,106.661088 153.227232,102.159936 L153.227232,94.01472 L131.458176,94.01472 L109.68912,94.01472 L109.68912,102.159936 C109.68912,106.661088 114.558336,110.304864 120.573504,110.304864 C126.588672,110.304864 131.458176,106.661088 131.458176,102.159936 L131.458176,94.01472 L131.458176,94.01472 L131.458176,94.01472 Z M87.920064,94.01472 L87.920064,94.01472 L87.920064,102.159936 C87.920064,106.661088 92.78928,110.304864 98.804448,110.304864 C104.819616,110.304864 109.68912,106.661088 109.68912,102.159936 L109.68912,94.01472 L87.920064,94.01472 L87.920064,94.01472 Z" id="Shape" fill="#9D8555"></path>
                <polygon id="Shape" fill="#016563" points="86.579136 187.816032 86.484672 165.005568 198.105408 164.54448 198.199584 187.354944 86.579136 187.816032"></polygon>
                <polygon id="Shape" fill="#FCC329" points="176.216256 150.928128 182.32848 150.606432 180.727776 144.299808 170.635968 144.831168 169.79328 150.669792 161.713152 150.669792 152.044416 164.54448 176.216256 164.54448"></polygon>
                <polygon id="Shape" fill="#FFD163" points="179.777088 144.337824 179.060832 144.337824 178.808544 150.631776 167.825376 150.631776 158.15664 164.506464 182.32848 164.506464 182.32848 150.631776 182.32848 144.337824"></polygon>
                <polygon id="Shape" fill="#000000" points="160.860384 154.02528 159.9192 155.505024 159.273504 154.886112 160.026336 153.703008"></polygon>
                <polygon id="Shape" fill="#000000" points="162.133632 154.05552 161.192448 155.535264 160.546752 154.916064 161.299584 153.733248"></polygon>
                <polygon id="Shape" fill="#000000" points="163.449216 154.039104 162.508032 155.51856 161.862336 154.899648 162.615168 153.716832"></polygon>
                <polygon id="Shape" fill="#000000" points="164.83392 154.06416 163.892448 155.543616 163.24704 154.924416 163.999584 153.7416"></polygon>
                <polygon id="Shape" fill="#000000" points="157.520448 158.675616 156.511296 160.110144 155.895264 159.461856 156.70224 158.31504"></polygon>
                <polygon id="Shape" fill="#000000" points="158.790816 158.764896 157.781952 160.199136 157.16592 159.550848 157.972608 158.404032"></polygon>
                <polygon id="Shape" fill="#000000" points="160.105824 158.809536 159.09696 160.243776 158.480928 159.595488 159.287616 158.448672"></polygon>
                <polygon id="Shape" fill="#000000" points="161.487936 158.898528 160.478784 160.333056 159.862752 159.684768 160.66944 158.537952"></polygon>
                <polygon id="Shape" fill="#000000" points="159.169824 156.313152 158.160672 157.747392 157.54464 157.099104 158.351616 155.952288"></polygon>
                <polygon id="Shape" fill="#000000" points="160.440192 156.402432 159.431328 157.836672 158.815296 157.188384 159.621984 156.041568"></polygon>
                <polygon id="Shape" fill="#000000" points="161.7552 156.446784 160.746336 157.881312 160.130304 157.233024 160.936992 156.086208"></polygon>
                <polygon id="Shape" fill="#000000" points="163.137024 156.536064 162.12816 157.970304 161.512128 157.322016 162.318816 156.1752"></polygon>
                <polygon id="Shape" fill="#8A8A8A" points="161.075232 152.342992 161.075232 152.073792 166.019904 152.073792 166.019904 152.342992"></polygon>
                <polygon id="Shape" fill="#4D4D4D" points="161.075232 163.274688 161.075232 163.274688 158.608512 163.274688 158.538528 163.268352 159.533568 161.504928 159.533568 161.503488 157.22208 161.503488 157.224096 161.472672 157.206816 161.503488 157.205952 161.503488 157.205952 161.504928 156.210912 163.268352 156.280896 163.274688"></polygon>
                <polygon id="Shape" fill="#8A8A8A" points="153.54576 163.282464 153.54576 161.480448 157.671936 161.480448 157.671936 163.282464 153.54576 163.282464"></polygon>
                <polygon id="Shape" fill="#8A8A8A" points="171.3888 149.682816 171.3888 145.940832 177.623136 145.940832 177.623136 149.682816 171.3888 149.682816"></polygon>
                <path d="M108.662112,30.77856 C108.662112,29.59776 107.748,28.645632 106.567488,28.645632 C105.729696,28.645632 104.92992,29.102688 104.5872,29.94048 L97.503264,46.35504 L90.419616,29.94048 C90.076608,29.102688 89.27712,28.645632 88.43904,28.645632 C87.296544,28.645632 86.344416,29.59776 86.344416,30.77856 C86.344416,31.04496 86.382432,31.349664 86.496768,31.616352 L95.446656,52.334496 C95.82768,53.286624 96.627168,53.74368 97.541568,53.74368 C98.417376,53.74368 99.179136,53.248608 99.559872,52.334496 L108.50976,31.616352 C108.624096,31.349664 108.662112,31.04496 108.662112,30.77856 L108.662112,30.77856 Z" id="Shape" fill="#92392D"></path>
                <path d="M128.390112,40.98528 C128.390112,38.128896 125.60976,36.91008 123.1344,36.91008 C117.535968,36.91008 109.995264,40.680576 109.995264,47.078784 C109.995264,51.382368 113.384736,53.74368 117.459648,53.74368 C120.087648,53.74368 123.096384,52.98192 126.409824,51.230016 C127.05696,50.887296 127.437984,50.201568 127.437984,49.478112 C127.437984,48.335616 126.523872,47.497536 125.457408,47.497536 C125.152992,47.497536 124.848288,47.573856 124.543584,47.726208 C121.61088,49.24944 119.325888,50.0112 117.650304,50.0112 C116.24112,50.0112 114.641568,49.554144 114.108192,48.106944 C118.259424,48.030912 128.390112,46.964448 128.390112,40.98528 L128.390112,40.98528 Z M124.124544,41.213664 C124.124544,42.813216 118.71648,44.527104 114.79392,44.717472 C116.355168,42.242112 120.16368,40.718592 123.020064,40.718592 L123.096384,40.718592 C123.781824,40.718592 124.124544,40.90896 124.124544,41.213664 L124.124544,41.213664 Z" id="Shape" fill="#92392D"></path>
                <path d="M145.871136,51.610752 L145.871136,44.831808 C145.871136,39.8808 143.357472,36.91008 139.091904,36.91008 C137.263968,36.91008 135.664416,37.67184 134.483616,38.966688 L134.483616,38.890368 C134.483616,37.785888 133.607808,36.91008 132.503328,36.91008 C131.398848,36.91008 130.522752,37.785888 130.522752,38.890368 L130.522752,51.610752 C130.522752,52.677216 131.398848,53.591328 132.503328,53.591328 C133.607808,53.591328 134.483616,52.677216 134.483616,51.610752 L134.483616,44.336736 C135.47376,42.01344 137.68272,40.870944 139.091904,40.870944 C139.929696,40.870944 141.910272,40.870944 141.910272,44.831808 L141.910272,51.610752 C141.910272,52.677216 142.78608,53.591328 143.89056,53.591328 C144.99504,53.591328 145.871136,52.677216 145.871136,51.610752 L145.871136,51.610752 Z" id="Shape" fill="#92392D"></path>
                <path d="M165.389184,51.572736 L165.389184,30.587904 C165.389184,29.483424 164.513376,28.607616 163.408896,28.607616 C162.304416,28.607616 161.428608,29.483424 161.428608,30.587904 L161.428608,37.100448 C156.134592,38.01456 147.98448,41.442048 147.946464,47.916576 L147.946464,48.030912 C147.908448,51.87744 150.802848,53.705376 154.344672,53.705376 C156.248928,53.705376 158.648256,53.172288 161.428608,51.53472 C161.428608,52.677216 162.2664,53.553024 163.408896,53.553024 C164.513376,53.553024 165.389184,52.6392 165.389184,51.572736 L165.389184,51.572736 Z M161.428608,47.19312 C158.572224,49.135392 156.096576,49.897152 154.420992,49.897152 C153.16416,49.897152 151.869312,49.478112 151.907328,47.992608 C151.945344,44.070048 158.495904,41.746752 161.428608,41.137632 L161.428608,47.19312 Z" id="Shape" fill="#92392D"></path>
                <path d="M183.631968,43.155936 C183.631968,39.614112 181.308672,36.834048 177.6528,36.834048 C172.359072,36.834048 167.44608,42.318144 167.484096,47.497536 C167.484096,51.001632 169.807104,53.74368 173.463552,53.74368 C178.75728,53.74368 183.631968,48.2976 183.631968,43.155936 L183.631968,43.155936 Z M179.671104,43.11792 C179.671104,46.08864 176.54832,49.782816 173.463552,49.782816 C171.978048,49.782816 171.44496,48.754368 171.44496,47.421504 C171.44496,44.489088 174.644064,40.794624 177.6528,40.794624 C179.061696,40.794624 179.671104,41.785056 179.671104,43.11792 L179.671104,43.11792 Z" id="Shape" fill="#92392D"></path>
                <path d="M198.199584,40.109184 C198.199584,39.652128 198.009216,39.195072 197.704512,38.852352 C196.562016,37.59552 195.114528,36.872064 193.55328,36.872064 C191.801376,36.872064 190.354176,37.900224 189.706464,39.004704 C189.668448,37.900224 188.79264,37.024416 187.726176,37.024416 C186.621696,37.024416 185.707872,37.900224 185.707872,39.004704 L185.707872,51.610752 C185.707872,52.715232 186.621696,53.591328 187.726176,53.591328 C188.79264,53.591328 189.706464,52.715232 189.706464,51.610752 L189.706464,45.631584 C190.125504,42.813216 191.801376,40.756608 193.172256,40.756608 C193.896,40.756608 194.353056,41.061312 194.695776,41.480352 C195.114528,41.899104 195.647904,42.127776 196.219008,42.127776 C197.323488,42.127776 198.199584,41.213664 198.199584,40.109184 L198.199584,40.109184 Z" id="Shape" fill="#92392D"></path>
            </g>
        </g>
    </g>
</svg>